<svg width="313" height="719" viewBox="0 0 313 719" fill="none" xmlns="http://www.w3.org/2000/svg">
<path d="M293.31 98.4415L343.625 108.046M293.31 98.4415L275.086 47.0913M293.31 98.4415L287.95 52.2168M293.31 98.4415L298.995 84.1743M343.625 108.046L304.124 131.028M343.625 108.046L298.995 84.1743M343.625 108.046L300.45 61.2711M343.625 108.046L356.545 148.561M343.625 108.046L328.167 55.0623M304.124 131.028L335.543 129.411M304.124 131.028L329.813 139.684M335.543 129.411L329.813 139.684M335.543 129.411L356.545 148.561M329.813 139.684L356.545 148.561M275.086 47.0913L292.482 40.8433M275.086 47.0913L274.138 82.6569L263.972 78.6061M275.086 47.0913L263.972 78.6061M275.086 47.0913L287.95 52.2168M292.482 40.8433L287.95 52.2168M292.482 40.8433L328.167 55.0623M287.95 52.2168L298.995 84.1743M287.95 52.2168L328.167 55.0623M287.95 52.2168L300.45 61.2711M298.995 84.1743L300.45 61.2711M263.972 78.6061L258.277 89.2767M328.167 55.0623L300.45 61.2711M356.545 148.561L336.138 194.345" stroke="#546BDF" stroke-opacity="0.3" stroke-width="0.357471"/>
<path d="M334.475 139.685L340.51 194.761L308.405 131.26M308.405 131.26L305.753 221.646M308.405 131.26L264.993 186.425M305.753 221.646L247.711 208.387L264.993 186.425M305.753 221.646L264.993 186.425M264.993 186.425L249.383 156.483" stroke="#546BDF" stroke-opacity="0.3" stroke-width="0.357471"/>
<path d="M246.513 121.742L232.725 127.989L249.626 156.769L246.513 121.742Z" stroke="#546BDF" stroke-opacity="0.3" stroke-width="0.357471"/>
<path d="M249.673 156.358L308.405 131.26L246.513 121.742" stroke="#546BDF" stroke-opacity="0.3" stroke-width="0.357471"/>
<path d="M308.479 130.953L265.138 104.574L297.78 98.5572L308.479 130.953Z" stroke="#546BDF" stroke-opacity="0.3" stroke-width="0.357471"/>
<path d="M247.52 208.503L259.932 257.35" stroke="#546BDF" stroke-opacity="0.3" stroke-width="0.357471"/>
<path d="M249.34 155.987L247.446 208.81" stroke="#546BDF" stroke-opacity="0.3" stroke-width="0.357471"/>
<path d="M260.239 257.424L305.445 221.572M305.445 221.572L330.721 279.044L299.783 287.418L305.445 221.572Z" stroke="#546BDF" stroke-opacity="0.3" stroke-width="0.357471"/>
<path d="M299.476 287.344L260.165 257.73L285.11 295.038L307.312 329.575L299.476 287.344Z" stroke="#546BDF" stroke-opacity="0.3" stroke-width="0.357471"/>
<path d="M299.403 287.65L285.111 295.038" stroke="#546BDF" stroke-opacity="0.3" stroke-width="0.357471"/>
<path d="M380.846 223.489L340.964 194.223L305.826 221.34L380.846 223.489Z" stroke="#546BDF" stroke-opacity="0.3" stroke-width="0.357471"/>
<path d="M381.036 223.374L330.72 279.044L381.321 255.837L372.645 274.953L351.3 325.012L307.619 329.649L346.936 351.165" stroke="#546BDF" stroke-opacity="0.3" stroke-width="0.357471"/>
<path d="M372.645 274.951L330.911 278.927L307.809 329.532L305.974 338.481" stroke="#546BDF" stroke-opacity="0.3" stroke-width="0.357471"/>
<path d="M330.91 278.927L351.49 324.895L357.876 332.76L371.136 382.136L347.433 351.123L325.973 370.703" stroke="#546BDF" stroke-opacity="0.3" stroke-width="0.357471"/>
<path d="M249.258 97.0002L247.009 121.699L264.83 104.5L262.206 89.1245L249.258 97.0002Z" stroke="#546BDF" stroke-opacity="0.3" stroke-width="0.357471"/>
<path d="M242.65 256.213L247.211 208.428L235.931 165.5M235.931 165.5L249.463 156.275M235.931 165.5L243.264 147.095M235.931 165.5L232.647 128.488" stroke="#546BDF" stroke-opacity="0.3" stroke-width="0.357471"/>
<path d="M280.558 321.323L223.524 378.853M280.558 321.323L301.223 367.878M280.558 321.323L273.184 376.103M223.524 378.853L187.086 381.086M223.524 378.853L273.184 376.103M223.524 378.853L233.438 387.76M223.524 378.853L189.337 400.695M187.086 381.086L132.423 375.641M187.086 381.086L189.337 400.695M132.423 375.641L72.8503 433.596M132.423 375.641L189.337 400.695M72.8503 433.596L106.602 520.848M72.8503 433.596L189.337 400.695M72.8503 433.596L86.751 439.135M72.8503 433.596L108.732 476.887M106.602 520.848L150.794 538.457M106.602 520.848L108.732 476.887M106.602 520.848L179.667 530.552M106.602 520.848L123.781 510.92M150.794 538.457L137.043 610.376M150.794 538.457L179.667 530.552M137.043 610.376L191.731 664.995M137.043 610.376L221.309 657.132M137.043 610.376L179.667 530.552M137.043 610.376L201.625 558.711M137.043 610.376L170.587 613.678M137.043 610.376L150.443 648.544M191.731 664.995L199.759 693.115M191.731 664.995L150.443 648.544M191.731 664.995L140.279 661.987M191.731 664.995L221.309 657.132M191.731 664.995L210.534 675.123M199.759 693.115L140.279 661.987M199.759 693.115L210.534 675.123M199.759 693.115L229.428 704.937M221.309 657.132L170.587 613.678M221.309 657.132L229.428 704.937M221.309 657.132L210.534 675.123M221.309 657.132L193.747 625.542M179.667 530.552L140.683 489.618M179.667 530.552L123.781 510.92M179.667 530.552L201.625 558.711M179.667 530.552L156.421 450.121M140.683 489.618L113.717 464.376M140.683 489.618L156.421 450.121M140.683 489.618L108.732 476.887M140.683 489.618L123.781 510.92M86.751 439.135L156.421 450.121M86.751 439.135L189.337 400.695M86.751 439.135L113.717 464.376M86.751 439.135L108.732 476.887M156.421 450.121L189.337 400.695M156.421 450.121L113.717 464.376M156.421 450.121L225.645 415.162M156.421 450.121L202.054 447.217M189.337 400.695L233.438 387.76M189.337 400.695L225.645 415.162M301.223 367.878L273.184 376.103M301.223 367.878L276.431 387.713M301.223 367.878L327.761 387.558M301.223 367.878L325.895 370.52M273.184 376.103L233.438 387.76M273.184 376.103L225.645 415.162M273.184 376.103L251.639 407.548M273.184 376.103L276.431 387.713M233.438 387.76L225.645 415.162M225.645 415.162L202.054 447.217M225.645 415.162L251.639 407.548M113.717 464.376L108.732 476.887M108.732 476.887L123.781 510.92M201.625 558.711L170.587 613.678M201.625 558.711L197.411 598.247M170.587 613.678L197.411 598.247M170.587 613.678L218.725 617.762M170.587 613.678L193.747 625.542M150.443 648.544L140.279 661.987M229.428 704.937L210.534 675.123M202.054 447.217L251.639 407.548M251.639 407.548L315.896 417.336M251.639 407.548L276.431 387.713M251.639 407.548L297.75 421.848L315.896 417.336M315.896 417.336L276.431 387.713M315.896 417.336L327.761 387.558M276.431 387.713L327.761 387.558M197.411 598.247L218.725 617.762M218.725 617.762L193.747 625.542M327.761 387.558L341.125 393.842L325.895 370.52M327.761 387.558L325.895 370.52M325.895 370.52L308.012 330.327M325.895 370.52L370.569 382.091" stroke="#546BDF" stroke-opacity="0.3" stroke-width="0.357471"/>
<path d="M301.504 367.462L306.196 336.982L280.705 321.314L284.911 295.673L242.519 256.59L260.284 257.634" stroke="#546BDF" stroke-opacity="0.3" stroke-width="0.357471"/>
<path d="M293.14 98.6147L257.259 89.1101L274.156 82.9035L293.14 98.6147Z" stroke="#546BDF" stroke-opacity="0.3" stroke-width="0.357471"/>
</svg>
