<svg width="270" height="719" viewBox="0 0 270 719" fill="none" xmlns="http://www.w3.org/2000/svg">
<path d="M-22.9698 98.4415L-73.2847 108.046M-22.9698 98.4415L-4.74656 47.0913M-22.9698 98.4415L-17.6102 52.2168M-22.9698 98.4415L-28.6547 84.1743M-73.2847 108.046L-33.7845 131.028M-73.2847 108.046L-28.6547 84.1743M-73.2847 108.046L-30.11 61.2711M-73.2847 108.046L-86.2052 148.561M-73.2847 108.046L-57.8274 55.0623M-33.7845 131.028L-65.2027 129.411M-33.7845 131.028L-59.4735 139.684M-65.2027 129.411L-59.4735 139.684M-65.2027 129.411L-86.2052 148.561M-59.4735 139.684L-86.2052 148.561M-4.74656 47.0913L-22.142 40.8433M-4.74656 47.0913L-3.79824 82.6569L6.36795 78.6061M-4.74656 47.0913L6.36795 78.6061M-4.74656 47.0913L-17.6102 52.2168M-22.142 40.8433L-17.6102 52.2168M-22.142 40.8433L-57.8274 55.0623M-17.6102 52.2168L-28.6547 84.1743M-17.6102 52.2168L-57.8274 55.0623M-17.6102 52.2168L-30.11 61.2711M-28.6547 84.1743L-30.11 61.2711M6.36795 78.6061L12.0625 89.2767M-57.8274 55.0623L-30.11 61.2711M-86.2052 148.561L-65.7985 194.345" stroke="#546BDF" stroke-opacity="0.3" stroke-width="0.357471"/>
<path d="M-64.135 139.685L-70.1701 194.761L-38.0652 131.26M-38.0652 131.26L-35.4133 221.646M-38.0652 131.26L5.34635 186.425M-35.4133 221.646L22.629 208.387L5.34635 186.425M-35.4133 221.646L5.34635 186.425M5.34635 186.425L20.9566 156.483" stroke="#546BDF" stroke-opacity="0.3" stroke-width="0.357471"/>
<path d="M23.8263 121.742L37.6151 127.989L20.7138 156.769L23.8263 121.742Z" stroke="#546BDF" stroke-opacity="0.3" stroke-width="0.357471"/>
<path d="M20.6668 156.358L-38.0653 131.26L23.8269 121.742" stroke="#546BDF" stroke-opacity="0.3" stroke-width="0.357471"/>
<path d="M-38.1388 130.953L5.20234 104.574L-27.4406 98.5572L-38.1388 130.953Z" stroke="#546BDF" stroke-opacity="0.3" stroke-width="0.357471"/>
<path d="M22.8203 208.503L10.408 257.35" stroke="#546BDF" stroke-opacity="0.3" stroke-width="0.357471"/>
<path d="M21 155.987L22.894 208.81" stroke="#546BDF" stroke-opacity="0.3" stroke-width="0.357471"/>
<path d="M10.101 257.424L-35.1055 221.572M-35.1055 221.572L-60.3809 279.044L-29.4433 287.418L-35.1055 221.572Z" stroke="#546BDF" stroke-opacity="0.3" stroke-width="0.357471"/>
<path d="M-29.1361 287.344L10.1752 257.73L-14.77 295.038L-36.9726 329.575L-29.1361 287.344Z" stroke="#546BDF" stroke-opacity="0.3" stroke-width="0.357471"/>
<path d="M21.0817 97.0002L23.3306 121.699L5.51019 104.5L8.13379 89.1245L21.0817 97.0002Z" stroke="#546BDF" stroke-opacity="0.3" stroke-width="0.357471"/>
<path d="M27.6895 256.213L23.1289 208.428L34.4091 165.5M34.4091 165.5L20.8764 156.275M34.4091 165.5L27.0757 147.095M34.4091 165.5L37.6924 128.488" stroke="#546BDF" stroke-opacity="0.3" stroke-width="0.357471"/>
<path d="M-10.2179 321.323L46.8154 378.853M-10.2179 321.323L-30.8835 367.878M-10.2179 321.323L-2.84393 376.103M46.8154 378.853L83.2543 381.086M46.8154 378.853L-2.84393 376.103M46.8154 378.853L36.9014 387.76M46.8154 378.853L81.0024 400.695M83.2543 381.086L137.916 375.641M83.2543 381.086L81.0024 400.695M137.916 375.641L197.49 433.596M137.916 375.641L81.0024 400.695M197.49 433.596L163.738 520.848M197.49 433.596L81.0024 400.695M197.49 433.596L183.589 439.135M197.49 433.596L161.608 476.887M163.738 520.848L119.546 538.457M163.738 520.848L161.608 476.887M163.738 520.848L90.6724 530.552M163.738 520.848L146.559 510.92M119.546 538.457L133.297 610.376M119.546 538.457L90.6724 530.552M133.297 610.376L78.6093 664.995M133.297 610.376L49.0306 657.132M133.297 610.376L90.6724 530.552M133.297 610.376L68.7153 558.711M133.297 610.376L99.753 613.678M133.297 610.376L119.896 648.544M78.6093 664.995L70.5807 693.115M78.6093 664.995L119.896 648.544M78.6093 664.995L130.061 661.987M78.6093 664.995L49.0306 657.132M78.6093 664.995L59.8057 675.123M70.5807 693.115L130.061 661.987M70.5807 693.115L59.8057 675.123M70.5807 693.115L40.9121 704.937M49.0306 657.132L99.753 613.678M49.0306 657.132L40.9121 704.937M49.0306 657.132L59.8057 675.123M49.0306 657.132L76.5925 625.542M90.6724 530.552L129.657 489.618M90.6724 530.552L146.559 510.92M90.6724 530.552L68.7153 558.711M90.6724 530.552L113.919 450.121M129.657 489.618L156.623 464.376M129.657 489.618L113.919 450.121M129.657 489.618L161.608 476.887M129.657 489.618L146.559 510.92M183.589 439.135L113.919 450.121M183.589 439.135L81.0024 400.695M183.589 439.135L156.623 464.376M183.589 439.135L161.608 476.887M113.919 450.121L81.0024 400.695M113.919 450.121L156.623 464.376M113.919 450.121L44.6946 415.162M113.919 450.121L68.2857 447.217M81.0024 400.695L36.9014 387.76M81.0024 400.695L44.6946 415.162M-30.8835 367.878L-2.84393 376.103M-30.8835 367.878L-6.09118 387.713M-30.8835 367.878L-57.421 387.558M-30.8835 367.878L-55.555 370.52M-2.84393 376.103L36.9014 387.76M-2.84393 376.103L44.6946 415.162M-2.84393 376.103L18.7011 407.548M-2.84393 376.103L-6.09118 387.713M36.9014 387.76L44.6946 415.162M44.6946 415.162L68.2857 447.217M44.6946 415.162L18.7011 407.548M156.623 464.376L161.608 476.887M161.608 476.887L146.559 510.92M68.7153 558.711L99.753 613.678M68.7153 558.711L72.929 598.247M99.753 613.678L72.929 598.247M99.753 613.678L51.615 617.762M99.753 613.678L76.5925 625.542M119.896 648.544L130.061 661.987M40.9121 704.937L59.8057 675.123M68.2857 447.217L18.7011 407.548M18.7011 407.548L-45.5558 417.336M18.7011 407.548L-6.09118 387.713M18.7011 407.548L-27.4102 421.848L-45.5558 417.336M-45.5558 417.336L-6.09118 387.713M-45.5558 417.336L-57.421 387.558M-6.09118 387.713L-57.421 387.558M72.929 598.247L51.615 617.762M51.615 617.762L76.5925 625.542M-57.421 387.558L-70.7847 393.842L-55.555 370.52M-57.421 387.558L-55.555 370.52M-55.555 370.52L-37.6722 330.327M-55.555 370.52L-100.229 382.091" stroke="#546BDF" stroke-opacity="0.3" stroke-width="0.357471"/>
<path d="M-31.1642 367.462L-35.8562 336.982L-10.3648 321.314L-14.5713 295.673L27.8212 256.59L10.056 257.634" stroke="#546BDF" stroke-opacity="0.3" stroke-width="0.357471"/>
<path d="M-22.7997 98.6147L13.0813 89.1101L-3.81656 82.9035L-22.7997 98.6147Z" stroke="#546BDF" stroke-opacity="0.3" stroke-width="0.357471"/>
</svg>
