<svg width="628" height="1234" viewBox="0 0 628 1234" fill="none" xmlns="http://www.w3.org/2000/svg">
<path d="M295.75 1003.18L329.69 951.446" stroke="#546BDF" stroke-opacity="0.64" stroke-width="1.38635"/>
<path d="M477.088 731.648L284.102 879.25L393.423 678.13L477.088 731.648Z" fill="url(#paint0_linear)"/>
<path d="M343.155 922.844L472.688 849.577L284.102 879.25M284.102 879.25L477.088 731.648L393.423 678.13L284.102 879.25Z" stroke="#546BDF" stroke-opacity="0.64" stroke-width="1.38635"/>
<path d="M270.593 777.987L284.102 879.251L166.765 759.308" stroke="#546BDF" stroke-opacity="0.64" stroke-width="1.38635"/>
<path d="M283.549 879.891L158.389 826.83L196.202 907.409L283.549 879.891Z" fill="url(#paint1_linear)" stroke="#546BDF" stroke-opacity="0.64" stroke-width="1.38635"/>
<path d="M343.155 922.842L329.689 951.447L306.94 915.944L284.19 880.442L343.155 922.842Z" fill="#879CE6"/>
<path d="M284.19 880.442L295.705 1002.58L196.247 908.004L120.275 845.607L107.495 922.187M284.19 880.442L343.155 922.842L329.689 951.447L306.94 915.944L284.19 880.442Z" stroke="#546BDF" stroke-opacity="0.64" stroke-width="1.38635"/>
<path d="M393.396 680.39L483.457 575.77L484.276 576.294" stroke="#546BDF" stroke-opacity="0.64" stroke-width="1.38635"/>
<path d="M271.783 779.457L348.603 760.409" stroke="#546BDF" stroke-opacity="0.64" stroke-width="1.38635"/>
<path d="M641.229 695.997L476.447 731.094L611.217 615.436L641.229 695.997Z" fill="url(#paint2_linear)"/>
<path d="M484.098 576.322L476.447 731.094M476.447 731.094L641.229 695.997L611.217 615.436L476.447 731.094Z" stroke="#546BDF" stroke-opacity="0.64" stroke-width="1.38635"/>
<path d="M610.577 614.885L484.651 575.682L604.94 571.505L714.907 565.699L610.577 614.885Z" fill="url(#paint3_linear)" stroke="#546BDF" stroke-opacity="0.64" stroke-width="1.38635"/>
<path d="M611.128 614.243L604.939 571.504" stroke="#546BDF" stroke-opacity="0.64" stroke-width="1.38635"/>
<path d="M598.286 892.404L472.227 851.411L476.537 732.288L598.286 892.404Z" fill="url(#paint4_linear)" stroke="#546BDF" stroke-opacity="0.64" stroke-width="1.38635"/>
<path d="M598.33 893L641.229 695.998L669.576 842.684L697.727 793.783L773.594 668.72L715.547 566.252L823.822 618.172" stroke="#546BDF" stroke-opacity="0.64" stroke-width="1.38635"/>
<path d="M598.838 891.763L671.232 840.761" stroke="#546BDF" stroke-opacity="0.64" stroke-width="1.38635"/>
<path d="M117.095 804.111L167.452 760.455L157.75 826.278L120.123 844.686L117.095 804.111Z" fill="url(#paint5_linear)" stroke="#546BDF" stroke-opacity="0.64" stroke-width="1.38635"/>
<path d="M167.34 952.534L108.207 921.795L159.993 912.157L195.489 908.53L167.34 952.534Z" fill="url(#paint6_linear)" stroke="#546BDF" stroke-opacity="0.64" stroke-width="1.38635"/>
<path d="M788.476 493.594L729.324 551.645L655.375 520.678L606.018 570.078L441.351 516.595L484.691 575.424L385.63 568.169L393.356 678.233" stroke="#546BDF" stroke-opacity="0.64" stroke-width="1.38635"/>
<path d="M394.277 678.34L483.827 575.655L386.242 568.696L394.277 678.34Z" fill="url(#paint7_linear)"/>
<defs>
<linearGradient id="paint0_linear" x1="278.723" y1="807.171" x2="481.594" y2="792.031" gradientUnits="userSpaceOnUse">
<stop stop-color="#C8DCEE"/>
<stop offset="1" stop-color="#546BDF"/>
</linearGradient>
<linearGradient id="paint1_linear" x1="161.483" y1="868.3" x2="282.013" y2="859.305" gradientUnits="userSpaceOnUse">
<stop stop-color="#C8DCEE"/>
<stop offset="1" stop-color="#546BDF"/>
</linearGradient>
<linearGradient id="paint2_linear" x1="470.726" y1="654.42" x2="637.199" y2="641.997" gradientUnits="userSpaceOnUse">
<stop stop-color="#C8DCEE"/>
<stop offset="1" stop-color="#546BDF"/>
</linearGradient>
<linearGradient id="paint3_linear" x1="486.454" y1="599.847" x2="716.176" y2="582.704" gradientUnits="userSpaceOnUse">
<stop stop-color="#C8DCEE"/>
<stop offset="1" stop-color="#546BDF"/>
</linearGradient>
<linearGradient id="paint4_linear" x1="469.688" y1="817.4" x2="592.008" y2="808.272" gradientUnits="userSpaceOnUse">
<stop stop-color="#C8DCEE"/>
<stop offset="1" stop-color="#546BDF"/>
</linearGradient>
<linearGradient id="paint5_linear" x1="117.129" y1="804.56" x2="170.447" y2="800.581" gradientUnits="userSpaceOnUse">
<stop stop-color="#C8DCEE"/>
<stop offset="1" stop-color="#546BDF"/>
</linearGradient>
<linearGradient id="paint6_linear" x1="167.745" y1="952.338" x2="144.409" y2="904.233" gradientUnits="userSpaceOnUse">
<stop stop-color="#C8DCEE"/>
<stop offset="1" stop-color="#546BDF"/>
</linearGradient>
<linearGradient id="paint7_linear" x1="400.343" y1="654.115" x2="387.442" y2="537.731" gradientUnits="userSpaceOnUse">
<stop stop-color="#C8DCEE"/>
<stop offset="1" stop-color="#546BDF"/>
</linearGradient>
</defs>
</svg>
