<svg width="501" height="894" viewBox="0 0 501 894" fill="none" xmlns="http://www.w3.org/2000/svg">
<path d="M-265.715 474.547L-48.3657 405.403M-265.715 474.547L-233.128 497.697M-265.715 474.547L-127.295 485.057M-48.3657 405.403L55.2325 478.997M-48.3657 405.403L-127.295 485.057M-48.3657 405.403L86.5692 560.048M-48.3657 405.403L-39.5086 462.501M55.2325 478.997L167.954 324.64M55.2325 478.997L86.5692 560.048M167.954 324.64L357.642 359.957M167.954 324.64L390.182 442.589M167.954 324.64L86.5692 560.048M167.954 324.64L174.395 563.648M167.954 324.64L227.742 397.596M167.954 324.64L260.853 291.2M357.642 359.957L423.137 331.001M357.642 359.957L260.853 291.2M357.642 359.957L269.786 244.563M357.642 359.957L390.182 442.589M357.642 359.957L406.66 386.795M423.137 331.001L269.786 244.563M423.137 331.001L406.66 386.795M423.137 331.001L492.689 380.409M390.182 442.589L227.742 397.596M390.182 442.589L492.689 380.409M390.182 442.589L406.66 386.795M390.182 442.589L286.974 431.69M86.5692 560.048L-52.3933 538.266M86.5692 560.048L-39.5086 462.501M86.5692 560.048L174.395 563.648M86.5692 560.048L-101.217 642.209M-52.3933 538.266L-142.76 517.981M-52.3933 538.266L-101.217 642.209M-52.3933 538.266L-127.295 485.057M-52.3933 538.266L-39.5086 462.501M-233.128 497.697L-101.217 642.209M-233.128 497.697L-142.76 517.981M-233.128 497.697L-127.295 485.057M-101.217 642.209L-142.76 517.981M-142.76 517.981L-127.295 485.057M-127.295 485.057L-39.5086 462.501M174.395 563.648L227.742 397.596M174.395 563.648L241.708 486.629M227.742 397.596L241.708 486.629M227.742 397.596L312.318 503.403M227.742 397.596L286.974 431.69M260.853 291.2L269.786 244.563M492.689 380.409L406.66 386.795M241.708 486.629L312.318 503.403M312.318 503.403L286.974 431.69" stroke="#546BDF" stroke-opacity="0.4"/>
</svg>
