<svg width="221" height="568" viewBox="0 0 221 568" fill="none" xmlns="http://www.w3.org/2000/svg">
<path d="M-358.514 313.669L-191.921 262.05M-358.514 313.669L-334.334 327.58M-358.514 313.669L-253.716 316.028M-191.921 262.05L-115.05 306.273M-191.921 262.05L-253.716 316.028M-191.921 262.05L-93.196 357.626M-191.921 262.05L-186.557 298.649M-115.05 306.273L-25.8324 202.959M-115.05 306.273L-93.196 357.626M-25.8324 202.959L117.284 219.703M-25.8324 202.959L140.013 272.037M-25.8324 202.959L-93.196 357.626M-25.8324 202.959L-26.63 357.141M-25.8324 202.959L17.8062 248.172M-25.8324 202.959L45.4652 178.386M117.284 219.703L167.677 198.902M117.284 219.703L45.4652 178.386M117.284 219.703L53.3538 147.974M117.284 219.703L140.013 272.037M117.284 219.703L153.845 235.47M167.677 198.902L53.3538 147.974M167.677 198.902L153.845 235.47M167.677 198.902L219.286 228.592M140.013 272.037L17.8062 248.172M140.013 272.037L219.286 228.592M140.013 272.037L153.845 235.47M140.013 272.037L61.9466 268.3M-93.196 357.626L-198.138 348.002M-93.196 357.626L-186.557 298.649M-93.196 357.626L-26.63 357.141M-93.196 357.626L-237.664 416.707M-198.138 348.002L-266.236 337.791M-198.138 348.002L-237.664 416.707M-198.138 348.002L-253.716 316.028M-198.138 348.002L-186.557 298.649M-334.334 327.58L-237.664 416.707M-334.334 327.58L-266.236 337.791M-334.334 327.58L-253.716 316.028M-237.664 416.707L-266.236 337.791M-266.236 337.791L-253.716 316.028M-253.716 316.028L-186.557 298.649M-26.63 357.141L17.8062 248.172M-26.63 357.141L26.2868 305.236M17.8062 248.172L26.2868 305.236M17.8062 248.172L79.4746 313.812M17.8062 248.172L61.9466 268.3M45.4652 178.386L53.3538 147.974M219.286 228.592L153.845 235.47M26.2868 305.236L79.4746 313.812M79.4746 313.812L61.9466 268.3" stroke="#546BDF" stroke-opacity="0.4"/>
</svg>
