<svg width="1440" height="1201" viewBox="0 0 1440 1201" fill="none" xmlns="http://www.w3.org/2000/svg">
<path d="M1334.65 405.596L1311.28 264.22M1334.65 405.596L1476.99 460.124M1334.65 405.596L1463.55 423.794M1334.65 405.596L1374.94 390.688M1311.28 264.22L1244.27 373.089M1311.28 264.22L1374.94 390.688M1311.28 264.22L1439.1 388.209M1311.28 264.22L1198.88 225.273M1311.28 264.22L1458.38 311.126M1244.27 373.089L1250.97 285.338M1244.27 373.089L1221.85 300.647M1250.97 285.338L1221.85 300.647M1250.97 285.338L1198.88 225.273M1221.85 300.647L1198.88 225.273M1476.99 460.124L1495.67 411.91M1476.99 460.124L1377.46 460.306L1388.08 489.018M1476.99 460.124L1388.08 489.018M1476.99 460.124L1463.55 423.794M1495.67 411.91L1463.55 423.794M1495.67 411.91L1458.38 311.126M1463.55 423.794L1374.94 390.688M1463.55 423.794L1458.38 311.126M1463.55 423.794L1439.1 388.209M1374.94 390.688L1439.1 388.209M1388.08 489.018L1357.85 504.202M1458.38 311.126L1439.1 388.209M1198.88 225.273L1069.42 279.163" stroke="#546BDF" stroke-opacity="0.3"/>
<path d="M1311.62 263.695L1250.97 285.338" stroke="#546BDF" stroke-opacity="0.3"/>
<path d="M1221.85 300.645L1068.24 279.943L1243.6 374.136M1243.6 374.136L990.642 375.276M1243.6 374.136L1086.31 491.709M990.642 375.276L1023.69 538.516L1086.31 491.709M990.642 375.276L1086.31 491.709M1086.31 491.709L1168.96 537.444" stroke="#546BDF" stroke-opacity="0.3"/>
<path d="M1265.92 547.881L1247.49 586.009L1168.18 536.745L1265.92 547.881Z" stroke="#546BDF" stroke-opacity="0.3"/>
<path d="M1169.33 536.641L1243.6 374.135L1265.92 547.882" stroke="#546BDF" stroke-opacity="0.3"/>
<path d="M1244.46 373.949L1315.22 496.987L1334.31 406.117L1244.46 373.949Z" stroke="#546BDF" stroke-opacity="0.3"/>
<path d="M1023.35 539.041L887.612 500.937" stroke="#546BDF" stroke-opacity="0.3"/>
<path d="M1170.35 537.6L1022.49 539.229" stroke="#546BDF" stroke-opacity="0.3"/>
<path d="M887.426 500.074L990.829 376.14M990.829 376.14L831.86 301.465L806.292 387.403L990.829 376.14Z" stroke="#546BDF" stroke-opacity="0.3"/>
<path d="M806.477 388.266L886.564 500.259L783.963 427.908L688.92 363.418L806.477 388.266Z" stroke="#546BDF" stroke-opacity="0.3"/>
<path d="M805.618 388.452L783.965 427.908" stroke="#546BDF" stroke-opacity="0.3"/>
<path d="M990.701 165.143L1069.78 278.709L991.502 375.091L990.701 165.143Z" stroke="#546BDF" stroke-opacity="0.3"/>
<path d="M991.042 164.619L831.862 301.465L900.275 161.568L846.215 184.503L704.739 240.72L688.737 362.555L631.296 251.109" stroke="#546BDF" stroke-opacity="0.3"/>
<path d="M846.216 184.503L832.2 300.941L689.075 362.031L663.92 366.543" stroke="#546BDF" stroke-opacity="0.3"/>
<path d="M832.197 300.94L705.075 240.195M631.445 249.721L575.197 308.374" stroke="#546BDF" stroke-opacity="0.3"/>
<path d="M705.598 240.535L631.444 249.722" stroke="#546BDF" stroke-opacity="0.3"/>
<path d="M989.839 165.329L897.687 162.124" stroke="#546BDF" stroke-opacity="0.3"/>
<path d="M1335.3 541.921L1266.07 546.495L1315.41 497.854L1358.22 506.258L1335.3 541.921Z" stroke="#546BDF" stroke-opacity="0.3"/>
<path d="M889.591 549.342L1023.54 539.907L1142.81 574.433M1142.81 574.433L1169.55 537.229M1142.81 574.433L1194.79 555.203M1142.81 574.433L1246.09 586.185" stroke="#546BDF" stroke-opacity="0.3"/>
<path d="M710.137 438.812L545.291 594.315M710.137 438.812L581.378 377.787M710.137 438.812L556.431 455.63M545.291 594.315L536.518 696.064M545.291 594.315L556.431 455.63M545.291 594.315L521.07 565.971M545.291 594.315L481.834 688.405M536.518 696.064L547.947 849.308M536.518 696.064L481.834 688.405M547.947 849.308L381.737 1011.88M547.947 849.308L481.834 688.405M381.737 1011.88L481.834 688.405M381.737 1011.88L367.213 972.626M381.737 1011.88L263.161 908.534M140.073 911.438L93.8981 786.63M140.073 911.438L263.161 908.534M140.073 911.438L118.009 706.431M140.073 911.438L169.032 864.085M93.8981 786.63L-108.184 820.092M93.8981 786.63L118.009 706.431M-108.184 820.092L-257.133 663.36M-108.184 820.092L-233.089 581.187M-108.184 820.092L118.009 706.431M-108.184 820.092L40.7862 643.071M-108.184 820.092L-115.088 726.053M-108.184 820.092L-213.993 779.965M-257.133 663.36L-335.215 638.955M-257.133 663.36L-213.993 779.965M-257.133 663.36L-252.292 807.457M-257.133 663.36L-233.089 581.187M-257.133 663.36L-284.152 610.071M-335.215 638.955L-252.292 807.457M-335.215 638.955L-284.152 610.071M-335.215 638.955L-366.215 555.164M-233.089 581.187L-115.088 726.053M-233.089 581.187L-366.215 555.164M-233.089 581.187L-284.152 610.071M-233.089 581.187L-146.66 660.46M118.009 706.431L229.776 818.297M118.009 706.431L169.032 864.085M118.009 706.431L40.7862 643.071M118.009 706.431L341.326 777.027M229.776 818.297L298.494 895.461M229.776 818.297L341.326 777.027M229.776 818.297L263.161 908.534M229.776 818.297L169.032 864.085M367.213 972.626L341.326 777.027M367.213 972.626L481.834 688.405M367.213 972.626L298.494 895.461M367.213 972.626L263.161 908.534M341.326 777.027L481.834 688.405M341.326 777.027L298.494 895.461M341.326 777.027L443.897 585.863M341.326 777.027L352.615 649.611M481.834 688.405L521.07 565.971M481.834 688.405L443.897 585.863M581.378 377.787L556.431 455.63M581.378 377.787L524.187 445.743M581.378 377.787L528.184 302.206M581.378 377.787L575.703 308.607M556.431 455.63L521.07 565.971M556.431 455.63L443.897 585.863M556.431 455.63L466.996 513.699M556.431 455.63L524.187 445.743M521.07 565.971L443.897 585.863M443.897 585.863L352.615 649.611M443.897 585.863L466.996 513.699M298.494 895.461L263.161 908.534M263.161 908.534L169.032 864.085M40.7862 643.071L-115.088 726.053M40.7862 643.071L-70.0725 652.11M-115.088 726.053L-70.0725 652.11M-115.088 726.053L-123.169 591.148M-115.088 726.053L-146.66 660.46M-213.993 779.965L-252.292 807.457M-366.215 555.164L-284.152 610.071M352.615 649.611L466.996 513.699M466.996 513.699L444.084 333.32M466.996 513.699L524.187 445.743M466.996 513.699L430.208 383.753L444.084 333.32M444.084 333.32L524.187 445.743M444.084 333.32L528.184 302.206M524.187 445.743L528.184 302.206M-70.0725 652.11L-123.169 591.148M-123.169 591.148L-146.66 660.46M528.184 302.206L575.703 308.607M575.703 308.607L686.865 361.409" stroke="#546BDF" stroke-opacity="0.3"/>
<path d="M582.56 377.028L668.125 366.023L710.173 438.399L782.172 428.416L888.526 549.683L886.84 499.929" stroke="#546BDF" stroke-opacity="0.3"/>
<path d="M1334.15 406.061L1358.24 507.064L1376.77 460.239L1334.15 406.061Z" stroke="#546BDF" stroke-opacity="0.3"/>
</svg>
