<svg width="639" height="514" viewBox="0 0 639 514" fill="none" xmlns="http://www.w3.org/2000/svg">
<path d="M559.042 309.629L514.415 309.114" stroke="#546BDF" stroke-opacity="0.64"/>
<path d="M323.564 304.983L488.265 364.877L323.564 376.624L323.564 304.983Z" fill="url(#paint0_linear)"/>
<path d="M491.8 312.05L396.932 261.819L488.265 364.877M488.265 364.877L323.564 304.983L323.564 376.624L488.265 364.877Z" stroke="#546BDF" stroke-opacity="0.64"/>
<path d="M431.984 412.446L488.265 364.877L460.99 482.796" stroke="#546BDF" stroke-opacity="0.64"/>
<path d="M488.869 364.964L505.276 461.64L539.541 407.343L488.869 364.964Z" fill="url(#paint1_linear)" stroke="#546BDF" stroke-opacity="0.64"/>
<path d="M491.8 312.05L514.415 309.114L501.685 336.737L488.955 364.359L491.8 312.05Z" fill="#879CE6"/>
<path d="M488.955 364.359L558.697 309.888L539.886 407.084L531.5 477.5L583 455.5M488.955 364.359L491.8 312.05L514.415 309.114L501.685 336.737L488.955 364.359Z" stroke="#546BDF" stroke-opacity="0.64"/>
<path d="M324.949 375.76L226.372 361.701L226.372 361" stroke="#546BDF" stroke-opacity="0.64"/>
<path d="M432.416 411.151L390.983 371.876" stroke="#546BDF" stroke-opacity="0.64"/>
<path d="M238.102 219.102L323.477 305.588L200.816 268.652L238.102 219.102Z" fill="url(#paint2_linear)"/>
<path d="M226.459 361.097L323.477 305.588M323.477 305.588L238.102 219.102L200.816 268.652L323.477 305.588Z" stroke="#546BDF" stroke-opacity="0.64"/>
<path d="M200.729 269.256L225.854 361.011L176.562 289.542L130.29 224.979L200.729 269.256Z" fill="url(#paint3_linear)" stroke="#546BDF" stroke-opacity="0.64"/>
<path d="M200.126 269.169L176.562 289.542" stroke="#546BDF" stroke-opacity="0.64"/>
<path d="M374.138 168.855L398.227 261.387L324.168 305.07L374.138 168.855Z" fill="url(#paint4_linear)" stroke="#546BDF" stroke-opacity="0.64"/>
<path d="M374.483 168.596L238.103 219.102L316.216 144.863L275.56 146.764L170.079 149.275L130.377 224.375L119.84 138.402" stroke="#546BDF" stroke-opacity="0.64"/>
<path d="M275.561 146.764L238.449 218.843L130.723 224.116L113.287 221.009" stroke="#546BDF" stroke-opacity="0.64"/>
<path d="M238.448 218.843L170.424 149.016L160.842 131.925L81.4243 72.8025L120.272 137.539L69.6048 162.057" stroke="#546BDF" stroke-opacity="0.64"/>
<path d="M275.3 146.419L183.386 98.6768L170.682 149.361L120.271 137.539" stroke="#546BDF" stroke-opacity="0.64"/>
<path d="M120.617 137.28L161.1 132.271L182.954 98.677" stroke="#546BDF" stroke-opacity="0.64"/>
<path d="M176.48 109.035L81.4237 72.8025" stroke="#546BDF" stroke-opacity="0.64"/>
<path d="M38.8916 118.531L81.4235 72.8026" stroke="#546BDF" stroke-opacity="0.64"/>
<path d="M373.534 168.769L314.404 144.604" stroke="#546BDF" stroke-opacity="0.64"/>
<path d="M507.522 495.563L461.422 481.933L505.189 462.244L531 477.952L507.522 495.563Z" fill="url(#paint5_linear)" stroke="#546BDF" stroke-opacity="0.64"/>
<path d="M578.179 407.341L582.485 455.221L556.5 427.5L540.5 407.341L578.179 407.341Z" fill="url(#paint6_linear)" stroke="#546BDF" stroke-opacity="0.64"/>
<path d="M80.7562 72.7814L31.1229 30.4852L38.8916 118.962L120.031 137.521" stroke="#546BDF" stroke-opacity="0.64"/>
<path d="M-131.156 112.057L-170 57.6757L-25.567 99.5403L-9.44696 2.00012L38.46 118.099L69.5347 162.553L-21.9632 145.289L-76.344 172.048L-89.7234 124.667L-112.166 134.499L-131.156 112.057Z" fill="#6F85E3"/>
<path d="M38.46 118.099L-131.156 112.057M38.46 118.099L-9.44696 2.00012L-25.567 99.5403M38.46 118.099L-25.567 99.5403M38.46 118.099L69.5347 162.553L-21.9632 145.289M-131.156 112.057L-170 57.6757L-25.567 99.5403M-131.156 112.057L-89.7234 124.667M-131.156 112.057L-112.166 134.499L-89.7234 124.667M-21.9632 145.289L-76.344 172.048L-89.7234 124.667M-21.9632 145.289L-89.7234 124.667M-21.9632 145.289L57.4501 208.302L119.6 137.521" stroke="#546BDF" stroke-opacity="0.64"/>
<path d="M57.8818 208.302L116.147 221.681L126.074 278.652L175.275 289.442L206.782 410.288L225.682 361.086L259.778 424.099L323.654 376.624" stroke="#546BDF" stroke-opacity="0.64"/>
<path d="M130.5 223.5L120 137.5L169.5 149.5L130.5 223.5Z" fill="url(#paint7_linear)"/>
<path d="M182.858 99.6569L161.5 132.5L170.5 148L182.858 99.6569Z" fill="url(#paint8_linear)"/>
<path d="M81.5 73.5L39.5001 118.5L119 136.5L81.5 73.5Z" fill="url(#paint9_linear)"/>
<path d="M275 147L171.5 149.5L238.5 218.5L275 147Z" fill="url(#paint10_linear)"/>
<path d="M323.5 376L226.298 361.499L260 423.5L323.5 376Z" fill="url(#paint11_linear)"/>
<path d="M12 58.5L31 29.5" stroke="#546BDF" stroke-opacity="0.64"/>
<path d="M-2.00005 17.0442L30.3231 29.5827" stroke="#546BDF" stroke-opacity="0.64"/>
<defs>
<linearGradient id="paint0_linear" x1="446.557" y1="396.162" x2="358.504" y2="278.775" gradientUnits="userSpaceOnUse">
<stop stop-color="#C8DCEE"/>
<stop offset="1" stop-color="#546BDF"/>
</linearGradient>
<linearGradient id="paint1_linear" x1="529.272" y1="443.641" x2="476.958" y2="373.899" gradientUnits="userSpaceOnUse">
<stop stop-color="#C8DCEE"/>
<stop offset="1" stop-color="#546BDF"/>
</linearGradient>
<linearGradient id="paint2_linear" x1="279.111" y1="338.867" x2="206.856" y2="242.54" gradientUnits="userSpaceOnUse">
<stop stop-color="#C8DCEE"/>
<stop offset="1" stop-color="#546BDF"/>
</linearGradient>
<linearGradient id="paint3_linear" x1="239.837" y1="350.522" x2="140.13" y2="217.598" gradientUnits="userSpaceOnUse">
<stop stop-color="#C8DCEE"/>
<stop offset="1" stop-color="#546BDF"/>
</linearGradient>
<linearGradient id="paint4_linear" x1="378.547" y1="276.149" x2="325.456" y2="205.371" gradientUnits="userSpaceOnUse">
<stop stop-color="#C8DCEE"/>
<stop offset="1" stop-color="#546BDF"/>
</linearGradient>
<linearGradient id="paint5_linear" x1="507.782" y1="495.368" x2="484.64" y2="464.517" gradientUnits="userSpaceOnUse">
<stop stop-color="#C8DCEE"/>
<stop offset="1" stop-color="#546BDF"/>
</linearGradient>
<linearGradient id="paint6_linear" x1="577.903" y1="407.172" x2="557.743" y2="440.049" gradientUnits="userSpaceOnUse">
<stop stop-color="#C8DCEE"/>
<stop offset="1" stop-color="#546BDF"/>
</linearGradient>
<linearGradient id="paint7_linear" x1="124.728" y1="224.165" x2="145.468" y2="142.286" gradientUnits="userSpaceOnUse">
<stop stop-color="#C8DCEE"/>
<stop offset="1" stop-color="#546BDF"/>
</linearGradient>
<linearGradient id="paint8_linear" x1="178.327" y1="96.0197" x2="152.264" y2="176.362" gradientUnits="userSpaceOnUse">
<stop stop-color="#C8DCEE"/>
<stop offset="1" stop-color="#546BDF"/>
</linearGradient>
<linearGradient id="paint9_linear" x1="75.5654" y1="72.1567" x2="96.3053" y2="154.035" gradientUnits="userSpaceOnUse">
<stop stop-color="#C8DCEE"/>
<stop offset="1" stop-color="#546BDF"/>
</linearGradient>
<linearGradient id="paint10_linear" x1="253.797" y1="141.993" x2="209.431" y2="213.867" gradientUnits="userSpaceOnUse">
<stop stop-color="#C8DCEE"/>
<stop offset="1" stop-color="#546BDF"/>
</linearGradient>
<linearGradient id="paint11_linear" x1="306.423" y1="381.73" x2="240.717" y2="434.807" gradientUnits="userSpaceOnUse">
<stop stop-color="#C8DCEE"/>
<stop offset="1" stop-color="#546BDF"/>
</linearGradient>
</defs>
</svg>
