<svg width="780" height="747" viewBox="0 0 780 747" fill="none" xmlns="http://www.w3.org/2000/svg">
<path d="M20.9863 413.119L239.337 345.464M20.9863 413.119L52.6787 431.352M20.9863 413.119L158.343 416.212M239.337 345.464L340.09 403.426M239.337 345.464L158.343 416.212M239.337 345.464L368.734 470.733M239.337 345.464L246.367 393.433M340.09 403.426L457.026 268.014M340.09 403.426L368.734 470.733M457.026 268.014L644.605 289.96M457.026 268.014L674.396 358.554M457.026 268.014L368.734 470.733M457.026 268.014L455.98 470.097M457.026 268.014L514.222 327.274M457.026 268.014L550.474 235.806M644.605 289.96L710.655 262.697M644.605 289.96L550.474 235.806M644.605 289.96L560.814 195.947M644.605 289.96L674.396 358.554M644.605 289.96L692.526 310.625M710.655 262.697L560.814 195.947M710.655 262.697L692.526 310.625M710.655 262.697L778.297 301.611M674.396 358.554L514.222 327.274M674.396 358.554L778.297 301.611M674.396 358.554L692.526 310.625M674.396 358.554L572.076 353.655M368.734 470.733L231.188 458.119M368.734 470.733L246.367 393.433M368.734 470.733L455.98 470.097M368.734 470.733L179.383 548.169M231.188 458.119L141.933 444.736M231.188 458.119L179.383 548.169M231.188 458.119L158.343 416.212M231.188 458.119L246.367 393.433M52.6787 431.352L179.383 548.169M52.6787 431.352L141.933 444.736M52.6787 431.352L158.343 416.212M179.383 548.169L141.933 444.736M141.933 444.736L158.343 416.212M158.343 416.212L246.367 393.433M455.98 470.097L514.222 327.274M455.98 470.097L525.337 402.067M514.222 327.274L525.337 402.067M514.222 327.274L595.05 413.307M514.222 327.274L572.076 353.655M550.474 235.806L560.814 195.947M778.297 301.611L692.526 310.625M525.337 402.067L595.05 413.307M595.05 413.307L572.076 353.655" stroke="#546BDF" stroke-opacity="0.4"/>
</svg>
