<svg width="1440" height="913" viewBox="0 0 1440 913" fill="none" xmlns="http://www.w3.org/2000/svg">
<path d="M559.041 482.629L514.414 482.114" stroke="#546BDF" stroke-opacity="0.64"/>
<path d="M323.564 477.984L488.264 537.878L323.564 549.624L323.564 477.984Z" fill="url(#paint0_linear)"/>
<path d="M491.8 485.05L396.932 434.819L488.264 537.878M488.264 537.878L323.564 477.984L323.564 549.624L488.264 537.878Z" stroke="#546BDF" stroke-opacity="0.64"/>
<path d="M431.984 585.446L488.264 537.877L460.99 655.796" stroke="#546BDF" stroke-opacity="0.64"/>
<path d="M488.87 537.964L505.277 634.64L539.542 580.343L488.87 537.964Z" fill="url(#paint1_linear)" stroke="#546BDF" stroke-opacity="0.64"/>
<path d="M491.799 485.05L514.414 482.114L501.684 509.737L488.954 537.36L491.799 485.05Z" fill="#879CE6"/>
<path d="M488.954 537.36L558.696 482.888L539.885 580.084L531.5 650.5L583 628.5M488.954 537.36L491.799 485.05L514.414 482.114L501.684 509.737L488.954 537.36Z" stroke="#546BDF" stroke-opacity="0.64"/>
<path d="M324.949 548.761L226.373 534.702L226.373 534" stroke="#546BDF" stroke-opacity="0.64"/>
<path d="M432.416 584.151L390.983 544.876" stroke="#546BDF" stroke-opacity="0.64"/>
<path d="M238.101 392.102L323.477 478.588L200.815 441.652L238.101 392.102Z" fill="url(#paint2_linear)"/>
<path d="M226.458 534.098L323.477 478.588M323.477 478.588L238.101 392.102L200.815 441.652L323.477 478.588Z" stroke="#546BDF" stroke-opacity="0.64"/>
<path d="M200.729 442.255L225.854 534.011L176.562 462.542L130.29 397.979L200.729 442.255Z" fill="url(#paint3_linear)" stroke="#546BDF" stroke-opacity="0.64"/>
<path d="M200.125 442.17L176.561 462.543" stroke="#546BDF" stroke-opacity="0.64"/>
<path d="M374.138 341.855L398.227 434.387L324.168 478.07L374.138 341.855Z" fill="url(#paint4_linear)" stroke="#546BDF" stroke-opacity="0.64"/>
<path d="M374.482 341.597L238.102 392.103L316.216 317.863L275.56 319.765L170.078 322.275L130.377 397.375L119.84 311.403" stroke="#546BDF" stroke-opacity="0.64"/>
<path d="M275.561 319.764L238.448 391.843L130.723 397.116L113.286 394.009" stroke="#546BDF" stroke-opacity="0.64"/>
<path d="M238.447 391.844L170.423 322.017L160.841 304.926L81.4233 245.803L120.271 310.54L69.6038 335.058" stroke="#546BDF" stroke-opacity="0.64"/>
<path d="M275.301 319.419L183.386 271.677L170.683 322.361L120.272 310.539" stroke="#546BDF" stroke-opacity="0.64"/>
<path d="M120.617 310.28L161.1 305.271L182.954 271.677" stroke="#546BDF" stroke-opacity="0.64"/>
<path d="M176.48 282.035L81.4237 245.802" stroke="#546BDF" stroke-opacity="0.64"/>
<path d="M38.8906 291.531L81.4225 245.803" stroke="#546BDF" stroke-opacity="0.64"/>
<path d="M373.533 341.77L314.403 317.604" stroke="#546BDF" stroke-opacity="0.64"/>
<path d="M507.523 668.563L461.422 654.933L505.19 635.244L531 650.952L507.523 668.563Z" fill="url(#paint5_linear)" stroke="#546BDF" stroke-opacity="0.64"/>
<path d="M578.178 580.342L582.484 628.221L556.499 600.5L540.499 580.342L578.178 580.342Z" fill="url(#paint6_linear)" stroke="#546BDF" stroke-opacity="0.64"/>
<path d="M80.7562 245.781L31.1229 203.485L38.8916 291.962L120.031 310.521" stroke="#546BDF" stroke-opacity="0.64"/>
<path d="M-131.156 285.056L-170 230.675L-25.567 272.54L-9.44696 175L38.46 291.099L69.5347 335.553L-21.9632 318.289L-76.344 345.048L-89.7234 297.666L-112.166 307.499L-131.156 285.056Z" fill="#6F85E3"/>
<path d="M38.46 291.099L-131.156 285.056M38.46 291.099L-9.44696 175L-25.567 272.54M38.46 291.099L-25.567 272.54M38.46 291.099L69.5347 335.553L-21.9632 318.289M-131.156 285.056L-170 230.675L-25.567 272.54M-131.156 285.056L-89.7234 297.666M-131.156 285.056L-112.166 307.499L-89.7234 297.666M-21.9632 318.289L-76.344 345.048L-89.7234 297.666M-21.9632 318.289L-89.7234 297.666M-21.9632 318.289L57.4501 381.302L119.6 310.52" stroke="#546BDF" stroke-opacity="0.64"/>
<path d="M57.8818 381.303L116.147 394.682L126.074 451.652L175.275 462.442L206.782 583.289L225.682 534.087L259.778 597.1L323.654 549.624" stroke="#546BDF" stroke-opacity="0.64"/>
<path d="M130.501 396.5L120.001 310.5L169.501 322.5L130.501 396.5Z" fill="url(#paint7_linear)"/>
<path d="M182.858 272.657L161.499 305.5L170.499 321L182.858 272.657Z" fill="url(#paint8_linear)"/>
<path d="M81.499 246.5L39.4991 291.5L118.999 309.5L81.499 246.5Z" fill="url(#paint9_linear)"/>
<path d="M275.001 320L171.501 322.499L238.501 391.5L275.001 320Z" fill="url(#paint10_linear)"/>
<path d="M323.5 549L226.298 534.499L260 596.5L323.5 549Z" fill="url(#paint11_linear)"/>
<path d="M12 231.5L31 202.5" stroke="#546BDF" stroke-opacity="0.64"/>
<path d="M-2.00102 190.044L30.3221 202.583" stroke="#546BDF" stroke-opacity="0.64"/>
<path d="M1163.5 756.78L1175.55 713.807" stroke="#546BDF" stroke-opacity="0.64"/>
<path d="M1228.93 530.53L1128.45 674.116L1159.73 511.988L1228.93 530.53Z" fill="url(#paint12_linear)"/>
<path d="M1178.56 691.204L1251.64 612.57L1128.45 674.116M1128.45 674.116L1228.93 530.53L1159.73 511.988L1128.45 674.116Z" stroke="#546BDF" stroke-opacity="0.64"/>
<path d="M1097.07 607.442L1128.45 674.117L1021.61 617.252" stroke="#546BDF" stroke-opacity="0.64"/>
<path d="M1128.21 674.678L1030.58 665.504L1074.16 712.655L1128.21 674.678Z" fill="url(#paint13_linear)" stroke="#546BDF" stroke-opacity="0.64"/>
<path d="M1178.56 691.204L1175.55 713.808L1152.16 694.363L1128.77 674.917L1178.56 691.204Z" fill="#879CE6"/>
<path d="M1128.77 674.917L1163.34 756.381L1074.32 713.055L1008.48 686.73L1016.4 742.169M1128.77 674.917L1178.56 691.204L1175.55 713.808L1152.16 694.363L1128.77 674.917Z" stroke="#546BDF" stroke-opacity="0.64"/>
<path d="M1160.21 513.549L1199.3 421.97L1199.98 422.152" stroke="#546BDF" stroke-opacity="0.64"/>
<path d="M1098.21 608.193L1146.87 578.337" stroke="#546BDF" stroke-opacity="0.64"/>
<path d="M1334.01 470.207L1228.37 530.289L1295.8 421.367L1334.01 470.207Z" fill="url(#paint14_linear)"/>
<path d="M1199.86 422.209L1228.37 530.289M1228.37 530.289L1334.01 470.207L1295.8 421.367L1228.37 530.289Z" stroke="#546BDF" stroke-opacity="0.64"/>
<path d="M1295.23 421.128L1200.1 421.649L1281.89 392.533L1356.23 364.548L1295.23 421.128Z" fill="url(#paint15_linear)" stroke="#546BDF" stroke-opacity="0.64"/>
<path d="M1295.47 420.566L1281.89 392.533" stroke="#546BDF" stroke-opacity="0.64"/>
<path d="M1347.33 614.612L1251.72 613.931L1228.69 531.09L1347.33 614.612Z" fill="url(#paint16_linear)" stroke="#546BDF" stroke-opacity="0.64"/>
<path d="M1347.49 615.013L1334.01 470.208L1385.5 564.874L1394.19 525.111L1419.06 422.574L1356.8 364.788L1442.57 376.862" stroke="#546BDF" stroke-opacity="0.64"/>
<path d="M1394.18 525.113L1334.17 470.61L1356.96 365.19L1364.47 349.152" stroke="#546BDF" stroke-opacity="0.64"/>
<path d="M1334.17 470.608L1419.22 422.975L1438.21 418.142L1515.87 356.733L1443.29 377.502L1432.72 322.215" stroke="#546BDF" stroke-opacity="0.64"/>
<path d="M1394.59 524.95L1464.49 448.524L1418.82 423.135L1443.29 377.502" stroke="#546BDF" stroke-opacity="0.64"/>
<path d="M1443.45 377.902L1437.81 418.302L1464.6 448.106" stroke="#546BDF" stroke-opacity="0.64"/>
<path d="M1456.27 439.173L1515.87 356.733" stroke="#546BDF" stroke-opacity="0.64"/>
<path d="M1347.57 614.051L1386.22 563.19" stroke="#546BDF" stroke-opacity="0.64"/>
<path d="M997.236 658.893L1022.33 617.892L1030.02 665.264L1008.17 686.129L997.236 658.893Z" fill="url(#paint17_linear)" stroke="#546BDF" stroke-opacity="0.64"/>
<path d="M1064.16 749.977L1016.8 741.744L1050.3 723.819L1073.91 713.581L1064.16 749.977Z" fill="url(#paint18_linear)" stroke="#546BDF" stroke-opacity="0.64"/>
<path d="M1532.98 141.236L1595.56 117.791L1517.74 246.468L1607.78 287.284L1483.24 303.509L1432.26 322.02L1472.61 238.108L1460.84 178.654L1510.07 177.994L1506.38 153.771L1532.98 141.236Z" fill="#6F85E3"/>
<path d="M1483.24 303.509L1532.98 141.236M1483.24 303.509L1607.78 287.284L1517.74 246.468M1483.24 303.509L1517.74 246.468M1483.24 303.509L1432.26 322.02L1472.61 238.108M1532.98 141.236L1595.56 117.791L1517.74 246.468M1532.98 141.236L1510.07 177.994M1532.98 141.236L1506.38 153.771L1510.07 177.994M1472.61 238.108L1460.84 178.654L1510.07 177.994M1472.61 238.108L1510.07 177.994M1472.61 238.108L1391.19 298.506L1443.48 376.858" stroke="#546BDF" stroke-opacity="0.64"/>
<path d="M1391.08 298.923L1363.08 351.74L1305.48 346.583L1282.32 391.316L1157.44 390.471L1200.07 421.462L1130.38 438.088L1159.71 512.075" stroke="#546BDF" stroke-opacity="0.64"/>
<path d="M1357.61 365.134L1443.4 377.25L1418.99 421.957L1357.61 365.134Z" fill="url(#paint19_linear)"/>
<path d="M1463.68 447.761L1437.48 418.629L1420.18 423.311L1463.68 447.761Z" fill="url(#paint20_linear)"/>
<path d="M1394.1 524.509L1418.48 423.888L1334.49 470.747L1394.1 524.509Z" fill="url(#paint21_linear)"/>
<path d="M1160.35 512.087L1199.52 421.95L1130.91 438.457L1160.35 512.087Z" fill="url(#paint22_linear)"/>
<defs>
<linearGradient id="paint0_linear" x1="446.557" y1="569.163" x2="358.503" y2="451.775" gradientUnits="userSpaceOnUse">
<stop stop-color="#C8DCEE"/>
<stop offset="1" stop-color="#546BDF"/>
</linearGradient>
<linearGradient id="paint1_linear" x1="529.272" y1="616.641" x2="476.958" y2="546.899" gradientUnits="userSpaceOnUse">
<stop stop-color="#C8DCEE"/>
<stop offset="1" stop-color="#546BDF"/>
</linearGradient>
<linearGradient id="paint2_linear" x1="279.111" y1="511.867" x2="206.856" y2="415.54" gradientUnits="userSpaceOnUse">
<stop stop-color="#C8DCEE"/>
<stop offset="1" stop-color="#546BDF"/>
</linearGradient>
<linearGradient id="paint3_linear" x1="239.837" y1="523.522" x2="140.13" y2="390.598" gradientUnits="userSpaceOnUse">
<stop stop-color="#C8DCEE"/>
<stop offset="1" stop-color="#546BDF"/>
</linearGradient>
<linearGradient id="paint4_linear" x1="378.547" y1="449.149" x2="325.456" y2="378.371" gradientUnits="userSpaceOnUse">
<stop stop-color="#C8DCEE"/>
<stop offset="1" stop-color="#546BDF"/>
</linearGradient>
<linearGradient id="paint5_linear" x1="507.782" y1="668.368" x2="484.64" y2="637.517" gradientUnits="userSpaceOnUse">
<stop stop-color="#C8DCEE"/>
<stop offset="1" stop-color="#546BDF"/>
</linearGradient>
<linearGradient id="paint6_linear" x1="577.902" y1="580.172" x2="557.742" y2="613.05" gradientUnits="userSpaceOnUse">
<stop stop-color="#C8DCEE"/>
<stop offset="1" stop-color="#546BDF"/>
</linearGradient>
<linearGradient id="paint7_linear" x1="124.729" y1="397.165" x2="145.469" y2="315.286" gradientUnits="userSpaceOnUse">
<stop stop-color="#C8DCEE"/>
<stop offset="1" stop-color="#546BDF"/>
</linearGradient>
<linearGradient id="paint8_linear" x1="178.327" y1="269.02" x2="152.264" y2="349.363" gradientUnits="userSpaceOnUse">
<stop stop-color="#C8DCEE"/>
<stop offset="1" stop-color="#546BDF"/>
</linearGradient>
<linearGradient id="paint9_linear" x1="75.5644" y1="245.156" x2="96.3043" y2="327.035" gradientUnits="userSpaceOnUse">
<stop stop-color="#C8DCEE"/>
<stop offset="1" stop-color="#546BDF"/>
</linearGradient>
<linearGradient id="paint10_linear" x1="253.798" y1="314.993" x2="209.432" y2="386.867" gradientUnits="userSpaceOnUse">
<stop stop-color="#C8DCEE"/>
<stop offset="1" stop-color="#546BDF"/>
</linearGradient>
<linearGradient id="paint11_linear" x1="306.423" y1="554.73" x2="240.717" y2="607.807" gradientUnits="userSpaceOnUse">
<stop stop-color="#C8DCEE"/>
<stop offset="1" stop-color="#546BDF"/>
</linearGradient>
<linearGradient id="paint12_linear" x1="1109.03" y1="625.733" x2="1245.2" y2="571.062" gradientUnits="userSpaceOnUse">
<stop stop-color="#C8DCEE"/>
<stop offset="1" stop-color="#546BDF"/>
</linearGradient>
<linearGradient id="paint13_linear" x1="1041.76" y1="693.34" x2="1122.66" y2="660.86" gradientUnits="userSpaceOnUse">
<stop stop-color="#C8DCEE"/>
<stop offset="1" stop-color="#546BDF"/>
</linearGradient>
<linearGradient id="paint14_linear" x1="1207.71" y1="478.822" x2="1319.45" y2="433.96" gradientUnits="userSpaceOnUse">
<stop stop-color="#C8DCEE"/>
<stop offset="1" stop-color="#546BDF"/>
</linearGradient>
<linearGradient id="paint15_linear" x1="1206.61" y1="437.87" x2="1360.82" y2="375.963" gradientUnits="userSpaceOnUse">
<stop stop-color="#C8DCEE"/>
<stop offset="1" stop-color="#546BDF"/>
</linearGradient>
<linearGradient id="paint16_linear" x1="1242.55" y1="591.102" x2="1324.66" y2="558.138" gradientUnits="userSpaceOnUse">
<stop stop-color="#C8DCEE"/>
<stop offset="1" stop-color="#546BDF"/>
</linearGradient>
<linearGradient id="paint17_linear" x1="997.357" y1="659.195" x2="1033.15" y2="644.826" gradientUnits="userSpaceOnUse">
<stop stop-color="#C8DCEE"/>
<stop offset="1" stop-color="#546BDF"/>
</linearGradient>
<linearGradient id="paint18_linear" x1="1064.4" y1="749.753" x2="1037.86" y2="721.771" gradientUnits="userSpaceOnUse">
<stop stop-color="#C8DCEE"/>
<stop offset="1" stop-color="#546BDF"/>
</linearGradient>
<linearGradient id="paint19_linear" x1="1358.46" y1="359.386" x2="1432.18" y2="400.611" gradientUnits="userSpaceOnUse">
<stop stop-color="#C8DCEE"/>
<stop offset="1" stop-color="#546BDF"/>
</linearGradient>
<linearGradient id="paint20_linear" x1="1468.37" y1="444.326" x2="1397.51" y2="398.356" gradientUnits="userSpaceOnUse">
<stop stop-color="#C8DCEE"/>
<stop offset="1" stop-color="#546BDF"/>
</linearGradient>
<linearGradient id="paint21_linear" x1="1404.43" y1="505.325" x2="1346.48" y2="443.868" gradientUnits="userSpaceOnUse">
<stop stop-color="#C8DCEE"/>
<stop offset="1" stop-color="#546BDF"/>
</linearGradient>
<linearGradient id="paint22_linear" x1="1159.24" y1="494.108" x2="1124.97" y2="416.905" gradientUnits="userSpaceOnUse">
<stop stop-color="#C8DCEE"/>
<stop offset="1" stop-color="#546BDF"/>
</linearGradient>
</defs>
</svg>
