<svg width="1440" height="353" viewBox="0 0 1440 353" fill="none" xmlns="http://www.w3.org/2000/svg">
<path d="M72.804 365.133L141.919 317.268" stroke="#546BDF" stroke-opacity="0.3"/>
<path d="M173.445 288.086L374.121 262.063L121.087 202.816M121.087 202.816L439.603 115.544M121.087 202.816L279.484 1.21835M439.603 115.544L342.544 -79.0399L279.484 1.21835M439.603 115.544L279.484 1.21835M279.484 1.21835L159.764 -28.393" stroke="#546BDF" stroke-opacity="0.3"/>
<path d="M33.9891 -8.65227L44.2851 -62.9733L160.99 -27.7782L33.9891 -8.65227Z" stroke="#546BDF" stroke-opacity="0.3"/>
<path d="M159.575 -27.256L121.089 202.817L33.9912 -8.65266" stroke="#546BDF" stroke-opacity="0.3"/>
<path d="M120.065 203.344L-10.8943 72.24L-4.13182 193.28L120.065 203.344Z" stroke="#546BDF" stroke-opacity="0.3"/>
<path d="M157.965 -28.12L343.814 -80.3449" stroke="#546BDF" stroke-opacity="0.3"/>
<path d="M527.382 -76.8144L439.075 114.518M439.075 114.518L664.829 154.719L667.901 37.7001L439.075 114.518Z" stroke="#546BDF" stroke-opacity="0.3"/>
<path d="M667.374 36.6749L528.406 -77.3402L682.306 -20.9411L824.011 28.1104L667.374 36.6749Z" stroke="#546BDF" stroke-opacity="0.3"/>
<path d="M668.394 36.1495L682.304 -20.9406" stroke="#546BDF" stroke-opacity="0.3"/>
<path d="M510.835 380.481L372.608 264.139L438.584 116.069L510.835 380.481Z" stroke="#546BDF" stroke-opacity="0.3"/>
<path d="M510.581 381.257L664.825 154.719L626.047 354.304L686.419 307.045L845.703 188.166L824.534 29.1363L934.768 150.146" stroke="#546BDF" stroke-opacity="0.3"/>
<path d="M686.419 307.045L664.578 155.495L824.287 29.9122L854.47 15.6878" stroke="#546BDF" stroke-opacity="0.3"/>
<path d="M664.58 155.495L845.458 188.941L878.873 204.832L1065.54 209.359L935.051 151.947L986.061 58.9159" stroke="#546BDF" stroke-opacity="0.3"/>
<path d="M687.197 307.293L878.39 380.832L844.682 188.691L935.051 151.946" stroke="#546BDF" stroke-opacity="0.3"/>
<path d="M934.802 152.722L878.095 204.583L877.859 379.808" stroke="#546BDF" stroke-opacity="0.3"/>
<path d="M1080.85 92.5101L1065.54 209.359" stroke="#546BDF" stroke-opacity="0.3"/>
<path d="M511.855 379.953L629.12 352.725" stroke="#546BDF" stroke-opacity="0.3"/>
<path d="M-51.4555 22.4045L34.2695 -6.85363L-11.4236 71.2108L-68.2546 75.1437L-51.4555 22.4045Z" stroke="#546BDF" stroke-opacity="0.3"/>
<path d="M507.933 -138.193L342.263 -80.8438L180.184 -83.9005M180.184 -83.9005L159.1 -27.9236M180.184 -83.9005L121.179 -42.0188M180.184 -83.9005L45.9912 -63.6708" stroke="#546BDF" stroke-opacity="0.3"/>
<path d="M771.68 -59.7394L926.736 -311.72M771.68 -59.7394L954.716 -26.4957M771.68 -59.7394L959.751 -133.099M926.736 -311.72L903.271 -442.973M926.736 -311.72L959.751 -133.099M926.736 -311.72L966.889 -284.206M926.736 -311.72L974.81 -451.873M903.271 -442.973L836.861 -632.292M903.271 -442.973L974.81 -451.873M836.861 -632.292L991.237 -893.653M836.861 -632.292L974.81 -451.873M991.237 -893.653L1329.99 -849.022M991.237 -893.653L974.81 -451.873M991.237 -893.653L1022.87 -849.088M991.237 -893.653L1175.8 -803.594M1329.99 -849.022L1430.55 -707.344M1329.99 -849.022L1175.8 -803.594M1329.99 -849.022L1427.37 -598.055M1329.99 -849.022L1309.55 -779.498M1430.55 -707.344L1673.97 -818.102M1430.55 -707.344L1427.37 -598.055M1673.97 -818.102L1914.93 -671.051M1673.97 -818.102L1912.5 -559.296M1673.97 -818.102L1427.37 -598.055M1673.97 -818.102L1546.23 -544.38M1673.97 -818.102L1714.58 -701.89M1673.97 -818.102L1820.98 -803.418M1914.93 -671.051L2021.65 -666.779M1914.93 -671.051L1820.98 -803.418M1914.93 -671.051L1859.93 -851.073M1914.93 -671.051L1912.5 -559.296M1914.93 -671.051L1967.08 -613.038M2021.65 -666.779L1859.93 -851.073M2021.65 -666.779L1967.08 -613.038M2021.65 -666.779L2089.17 -571.662M1912.5 -559.296L1714.58 -701.89M1912.5 -559.296L2089.17 -571.662M1912.5 -559.296L1967.08 -613.038M1912.5 -559.296L1776.64 -629.908M1427.37 -598.055L1248.51 -701.16M1427.37 -598.055L1309.55 -779.498M1427.37 -598.055L1546.23 -544.38M1427.37 -598.055L1121.88 -611.279M1248.51 -701.16L1135.69 -775.124M1248.51 -701.16L1121.88 -611.279M1248.51 -701.16L1175.8 -803.594M1248.51 -701.16L1309.55 -779.498M1022.87 -849.088L1121.88 -611.279M1022.87 -849.088L974.81 -451.873M1022.87 -849.088L1135.69 -775.124M1022.87 -849.088L1175.8 -803.594M1121.88 -611.279L974.81 -451.873M1121.88 -611.279L1135.69 -775.124M1121.88 -611.279L1057.43 -335.471M1121.88 -611.279L1150.88 -446.813M974.81 -451.873L966.889 -284.206M974.81 -451.873L1057.43 -335.471M954.716 -26.4957L959.751 -133.099M954.716 -26.4957L1003.76 -131.575M954.716 -26.4957L1047.42 50.7397M954.716 -26.4957L985.344 58.7935M959.751 -133.099L966.889 -284.206M959.751 -133.099L1057.43 -335.471M959.751 -133.099L1052.8 -236.655M959.751 -133.099L1003.76 -131.575M966.889 -284.206L1057.43 -335.471M1057.43 -335.471L1150.88 -446.813M1057.43 -335.471L1052.8 -236.655M1135.69 -775.124L1175.8 -803.594M1175.8 -803.594L1309.55 -779.498M1546.23 -544.38L1714.58 -701.89M1546.23 -544.38L1682.92 -593.393M1714.58 -701.89L1682.92 -593.393M1714.58 -701.89L1770.54 -534.555M1714.58 -701.89L1776.64 -629.908M1820.98 -803.418L1859.93 -851.073M2089.17 -571.662L1967.08 -613.038M1150.88 -446.813L1052.8 -236.655M1052.8 -236.655L1142.89 -17.024M1052.8 -236.655L1003.76 -131.575M1052.8 -236.655L1143.27 -85.3132L1142.89 -17.024M1142.89 -17.024L1003.76 -131.575M1142.89 -17.024L1047.42 50.7397M1003.76 -131.575L1047.42 50.7397M1682.92 -593.393L1770.54 -534.555M1770.54 -534.555L1776.64 -629.908M1047.42 50.7397L1081.24 92.7577L985.344 58.7935M1047.42 50.7397L985.344 58.7935M985.344 58.7935L827.284 29.9465M985.344 58.7935L1064.89 207.386" stroke="#546BDF" stroke-opacity="0.3"/>
<path d="M953.48 -25.1384L849.343 17.7701L771.773 -59.2073L684.391 -22.1899L509.16 -138.984L528.168 -76.8306" stroke="#546BDF" stroke-opacity="0.3"/>
</svg>
