<svg width="581" height="523" viewBox="0 0 581 523" fill="none" xmlns="http://www.w3.org/2000/svg">
<path d="M202.165 255.486L245.719 138.147M202.165 255.486L71.0421 278.563M202.165 255.486L88.6109 249.648M202.165 255.486L170.094 236M245.719 138.147L285.071 242.647M245.719 138.147L170.094 236M245.719 138.147L115.498 223.202M245.719 138.147L348.582 123.451M245.719 138.147L111.783 153.897M285.071 242.647L293.92 166.288M285.071 242.647L316.35 184.261M293.92 166.288L316.35 184.261M293.92 166.288L348.582 123.451M316.35 184.261L348.582 123.451M71.0421 278.563L63.0444 234.114M71.0421 278.563L156.354 295.277L142.469 318.129M71.0421 278.563L142.469 318.129M71.0421 278.563L88.6109 249.648M63.0444 234.114L88.6109 249.648M63.0444 234.114L111.783 153.897M88.6109 249.648L170.094 236M88.6109 249.648L111.783 153.897M88.6109 249.648L115.498 223.202M170.094 236L115.498 223.202M142.469 318.129L165.87 336.18M111.783 153.897L115.498 223.202M348.582 123.451L450.622 191.195" stroke="white"/>
<path d="M245.517 137.64L293.919 166.287" stroke="white"/>
<path d="M316.348 184.26L451.504 192.061L285.472 243.658M285.472 243.658L502.185 286.716M285.472 243.658L400.783 370.639M502.185 286.716L446.689 421.192L400.783 370.639M502.185 286.716L400.783 370.639M400.783 370.639L322.302 396.105" stroke="white"/>
<path d="M237.428 388.926L246.888 424.685L323.091 395.636L237.428 388.926Z" stroke="white"/>
<path d="M322.12 395.356L285.472 243.657L237.429 388.927" stroke="white"/>
<path d="M284.764 243.354L203.62 337.084L202.364 255.989L284.764 243.354Z" stroke="white"/>
<path d="M321.088 396.008L447.599 422.001" stroke="white"/>
<path d="M450.394 190.748L501.478 286.414" stroke="white"/>
<path d="M178.929 372.273L237.529 387.712L203.317 337.795L165.205 337.879L178.929 372.273Z" stroke="white"/>
<path d="M446.588 422.408L338.574 432.173M338.574 432.173L321.837 395.823M338.574 432.173L297.203 407.036M338.574 432.173L248.06 425.069" stroke="white"/>
<path d="M202.512 255.966L165.054 338.567L156.954 295.333L202.512 255.966Z" stroke="white"/>
</svg>
