<svg width="762" height="2015" viewBox="0 0 762 2015" fill="none" xmlns="http://www.w3.org/2000/svg">
<path d="M459.946 412.824L342.541 330.671M459.946 412.824L598.457 349.198M459.946 412.824L563.087 333.403M459.946 412.824L477.464 373.595M342.541 330.671L373.51 454.704M342.541 330.671L477.464 373.595M342.541 330.671L520.55 326.001M342.541 330.671L236.1 383.793M342.541 330.671L478.932 258.312M373.51 454.704L315.466 388.552M373.51 454.704L306.042 420.08M315.466 388.552L306.042 420.08M315.466 388.552L236.1 383.793M306.042 420.08L236.1 383.793M598.457 349.198L577.053 302.13M598.457 349.198L528.993 420.476L556.946 432.959M598.457 349.198L556.946 432.959M598.457 349.198L563.087 333.403M577.053 302.13L563.087 333.403M577.053 302.13L478.932 258.312M563.087 333.403L477.464 373.595M563.087 333.403L478.932 258.312M563.087 333.403L520.55 326.001M477.464 373.595L520.55 326.001M556.946 432.959L546.658 465.192M478.932 258.312L520.55 326.001M236.1 383.793L184.102 514.02" stroke="#546BDF" stroke-opacity="0.3"/>
<path d="M342.403 330.062L315.467 388.551" stroke="#546BDF" stroke-opacity="0.3"/>
<path d="M306.042 420.078L183.835 515.41L373.788 455.918M373.788 455.918L197.724 637.547M373.788 455.918L347.855 650.572M197.724 637.547L337.531 728.066L347.855 650.572M197.724 637.547L347.855 650.572M347.855 650.572L438.345 623.465" stroke="#546BDF" stroke-opacity="0.3"/>
<path d="M513.603 561.452L527.973 601.287L437.297 623.537L513.603 561.452Z" stroke="#546BDF" stroke-opacity="0.3"/>
<path d="M438.027 622.641L373.787 455.917L513.603 561.452" stroke="#546BDF" stroke-opacity="0.3"/>
<path d="M374.257 455.17L511.694 490.619L460.084 413.428L374.257 455.17Z" stroke="#546BDF" stroke-opacity="0.3"/>
<path d="M337.67 728.673L215.513 799.068" stroke="#546BDF" stroke-opacity="0.3"/>
<path d="M439.425 622.584L337.202 729.421" stroke="#546BDF" stroke-opacity="0.3"/>
<path d="M214.765 798.598L198.472 638.017M198.472 638.017L33.9291 699.444L77.486 777.814L198.472 638.017Z" stroke="#546BDF" stroke-opacity="0.3"/>
<path d="M78.2333 778.285L214.295 799.344L90.8291 822.099L-21.7318 844.949L78.2333 778.285Z" stroke="#546BDF" stroke-opacity="0.3"/>
<path d="M77.765 779.029L90.8303 822.097" stroke="#546BDF" stroke-opacity="0.3"/>
<path d="M47.5453 490.569L184.024 513.451L198.192 636.803L47.5453 490.569Z" stroke="#546BDF" stroke-opacity="0.3"/>
<path d="M47.4097 489.959L33.9311 699.443L-18.2408 552.712L-39.646 607.397L-98.3852 747.843L-22.477 844.476L-142.313 807.611" stroke="#546BDF" stroke-opacity="0.3"/>
<path d="M-39.6453 607.396L33.7927 698.834L-22.6155 843.868L-36.9797 865.006" stroke="#546BDF" stroke-opacity="0.3"/>
<path d="M33.7905 698.836L-98.5258 747.236L-126.753 749.773L-251.624 819.502L-143.201 806.534L-140.603 887.757" stroke="#546BDF" stroke-opacity="0.3"/>
<path d="M47.0767 491.315L-19.6521 554.951" stroke="#546BDF" stroke-opacity="0.3"/>
<path d="M557.856 507.685L512.718 560.374L512.443 491.092L548.391 466.36L557.856 507.685Z" stroke="#546BDF" stroke-opacity="0.3"/>
<path d="M251.501 831.501L338.42 729.145L446.5 668.025M446.5 668.025L438.6 622.896M446.5 668.025L469.099 617.42M446.5 668.025L527.12 602.411" stroke="#546BDF" stroke-opacity="0.3"/>
<path d="M47.001 882.5L42.8983 1109.08M47.001 882.5L-86.6597 931.876M47.001 882.5L-48.4549 1004.14M42.8983 1109.08L109.501 1186.5M42.8983 1109.08L-48.4549 1004.14M42.8983 1109.08L5.69936 1106.58M42.8983 1109.08L65.7883 1220.24M109.501 1186.5L227.044 1285.49M109.501 1186.5L65.7883 1220.24M227.044 1285.49L227.044 1517.99M227.044 1285.49L65.7883 1220.24M227.044 1517.99L-13.747 1620.51M227.044 1517.99L65.7883 1220.24M227.044 1517.99L188.822 1500.92M227.044 1517.99L70.2458 1530.49M-13.747 1620.51L-135.257 1566.25M-13.747 1620.51L70.2458 1530.49M-13.747 1620.51L-175.73 1492.93M-13.747 1620.51L-27.3486 1566.7M-135.257 1566.25L-252.642 1734.11M-135.257 1566.25L-175.73 1492.93M-252.642 1734.11L-468.839 1730.99M-252.642 1734.11L-510.769 1656.35M-252.642 1734.11L-175.73 1492.93M-252.642 1734.11L-275.023 1503.83M-252.642 1734.11L-324.696 1673.29M-252.642 1734.11L-355.315 1781.69M-468.839 1730.99L-540.884 1769.75M-468.839 1730.99L-355.315 1781.69M-468.839 1730.99L-362.441 1828.29M-468.839 1730.99L-510.769 1656.35M-468.839 1730.99L-525.826 1713.05M-540.884 1769.75L-362.441 1828.29M-540.884 1769.75L-525.826 1713.05M-540.884 1769.75L-622.461 1733.32M-510.769 1656.35L-324.696 1673.29M-510.769 1656.35L-622.461 1733.32M-510.769 1656.35L-525.826 1713.05M-510.769 1656.35L-393.663 1649.99M-175.73 1492.93L-17.6067 1491.25M-175.73 1492.93L-27.3486 1566.7M-175.73 1492.93L-275.023 1503.83M-175.73 1492.93L30.8916 1382.65M-17.6067 1491.25L85.6079 1496.09M-17.6067 1491.25L30.8916 1382.65M-17.6067 1491.25L70.2458 1530.49M-17.6067 1491.25L-27.3486 1566.7M188.822 1500.92L30.8916 1382.65M188.822 1500.92L65.7883 1220.24M188.822 1500.92L85.6079 1496.09M188.822 1500.92L70.2458 1530.49M30.8916 1382.65L65.7883 1220.24M30.8916 1382.65L85.6079 1496.09M30.8916 1382.65L-34.0441 1175.65M30.8916 1382.65L-52.3007 1285.49M65.7883 1220.24L5.69936 1106.58M65.7883 1220.24L-34.0441 1175.65M-86.6597 931.876L-48.4549 1004.14M-86.6597 931.876L-78.0699 1020.28M-86.6597 931.876L-177.886 917.052M-86.6597 931.876L-140.083 887.559M-48.4549 1004.14L5.69936 1106.58M-48.4549 1004.14L-34.0441 1175.65M-48.4549 1004.14L-69.4802 1108.68M-48.4549 1004.14L-78.0699 1020.28M5.69936 1106.58L-34.0441 1175.65M-34.0441 1175.65L-52.3007 1285.49M-34.0441 1175.65L-69.4802 1108.68M85.6079 1496.09L70.2458 1530.49M70.2458 1530.49L-27.3486 1566.7M-275.023 1503.83L-324.696 1673.29M-275.023 1503.83L-346.079 1589.4M-324.696 1673.29L-346.079 1589.4M-324.696 1673.29L-426.786 1584.73M-324.696 1673.29L-393.663 1649.99M-355.315 1781.69L-362.441 1828.29M-622.461 1733.32L-525.826 1713.05M-52.3007 1285.49L-69.4802 1108.68M-69.4802 1108.68L-214.45 998.93M-69.4802 1108.68L-78.0699 1020.28M-69.4802 1108.68L-188.1 1044.11L-214.45 998.93M-214.45 998.93L-78.0699 1020.28M-214.45 998.93L-177.886 917.052M-78.0699 1020.28L-177.886 917.052M-346.079 1589.4L-426.786 1584.73M-426.786 1584.73L-393.663 1649.99M-177.886 917.052L-216.553 902.513L-140.083 887.559M-177.886 917.052L-140.083 887.559M-140.083 887.559L-24.6054 845.013M-140.083 887.559L-250.427 820.551" stroke="#546BDF" stroke-opacity="0.3"/>
<path d="M-86.3745 930.499L-34.411 861.636L46.7313 882.186L89.9398 823.735L250.999 832.501L214.252 798.915" stroke="#546BDF" stroke-opacity="0.3"/>
<path d="M459.932 413.503L548.982 466.91L528.465 420.92L459.932 413.503Z" stroke="#546BDF" stroke-opacity="0.3"/>
</svg>
