<svg width="505" height="359" viewBox="0 0 505 359" fill="none" xmlns="http://www.w3.org/2000/svg">
<path d="M233.925 245.686L297.025 137.594M233.925 245.686L100.787 245.85M233.925 245.686L123.07 220.39M233.925 245.686L205.687 220.971M297.025 137.594L317.803 247.308M297.025 137.594L205.687 220.971M297.025 137.594L154.109 198.966M297.025 137.594L400.883 140.822M297.025 137.594L162.377 130.056M317.803 247.308L339.664 173.612M317.803 247.308L358.665 195.177M339.664 173.612L358.665 195.177M339.664 173.612L400.883 140.822M358.665 195.177L400.883 140.822M100.787 245.85L100.559 200.687M100.787 245.85L181.949 276.998L164.338 297.12M100.787 245.85L164.338 297.12M100.787 245.85L123.07 220.39M100.559 200.687L123.07 220.39M100.559 200.687L162.377 130.056M123.07 220.39L205.687 220.971M123.07 220.39L162.377 130.056M123.07 220.39L154.109 198.966M205.687 220.971L154.109 198.966M164.338 297.12L184.283 318.928M162.377 130.056L154.109 198.966M400.883 140.822L489.74 225.119" stroke="white"/>
<path d="M296.912 137.061L339.662 173.611" stroke="white"/>
<path d="M358.662 195.176L490.458 226.124L318.023 248.373M318.023 248.373L524.09 328.089M318.023 248.373L409.757 393.306M524.09 328.089L446.277 451.006L409.757 393.306M524.09 328.089L409.757 393.306M409.757 393.306L328.064 404.885" stroke="white"/>
<path d="M328.015 404.115L318.025 248.372L245.694 383.205" stroke="white"/>
<path d="M317.379 247.952L221.313 326.317L234.034 246.216L317.379 247.952Z" stroke="white"/>
<path d="M489.592 224.639L523.448 327.67" stroke="white"/>
<path d="M190.933 356.731L246.002 382.025L220.892 326.965L183.334 320.488L190.933 356.731Z" stroke="white"/>
<path d="M234.183 246.219L183.067 321.14L182.529 277.157L234.183 246.219Z" stroke="white"/>
</svg>
