<svg width="1203" height="1325" viewBox="0 0 1203 1325" fill="none" xmlns="http://www.w3.org/2000/svg">
<path d="M295.75 1003.18L329.69 951.446" stroke="#546BDF" stroke-opacity="0.64" stroke-width="1.38635"/>
<path d="M477.088 731.648L284.102 879.25L393.423 678.13L477.088 731.648Z" fill="url(#paint0_linear)"/>
<path d="M343.155 922.844L472.688 849.577L284.102 879.25M284.102 879.25L477.088 731.648L393.423 678.13L284.102 879.25Z" stroke="#546BDF" stroke-opacity="0.64" stroke-width="1.38635"/>
<path d="M270.593 777.987L284.102 879.251L166.766 759.308" stroke="#546BDF" stroke-opacity="0.64" stroke-width="1.38635"/>
<path d="M283.549 879.891L158.389 826.831L196.202 907.409L283.549 879.891Z" fill="url(#paint1_linear)" stroke="#546BDF" stroke-opacity="0.64" stroke-width="1.38635"/>
<path d="M343.155 922.842L329.69 951.447L306.94 915.944L284.191 880.442L343.155 922.842Z" fill="#879CE6"/>
<path d="M284.191 880.442L295.706 1002.58L196.247 908.004L120.276 845.607L107.496 922.187M284.191 880.442L343.155 922.842L329.69 951.447L306.94 915.944L284.191 880.442Z" stroke="#546BDF" stroke-opacity="0.64" stroke-width="1.38635"/>
<path d="M393.397 680.39L483.457 575.77L484.276 576.294" stroke="#546BDF" stroke-opacity="0.64" stroke-width="1.38635"/>
<path d="M271.782 779.457L348.602 760.41" stroke="#546BDF" stroke-opacity="0.64" stroke-width="1.38635"/>
<path d="M641.229 695.997L476.448 731.094L611.217 615.436L641.229 695.997Z" fill="url(#paint2_linear)"/>
<path d="M484.098 576.322L476.448 731.094M476.448 731.094L641.229 695.997L611.217 615.436L476.448 731.094Z" stroke="#546BDF" stroke-opacity="0.64" stroke-width="1.38635"/>
<path d="M610.576 614.885L484.65 575.682L604.939 571.505L714.906 565.699L610.576 614.885Z" fill="url(#paint3_linear)" stroke="#546BDF" stroke-opacity="0.64" stroke-width="1.38635"/>
<path d="M611.128 614.243L604.939 571.505" stroke="#546BDF" stroke-opacity="0.64" stroke-width="1.38635"/>
<path d="M598.285 892.404L472.226 851.411L476.536 732.289L598.285 892.404Z" fill="url(#paint4_linear)" stroke="#546BDF" stroke-opacity="0.64" stroke-width="1.38635"/>
<path d="M598.33 893.001L641.229 695.998L669.575 842.684L697.726 793.783L773.594 668.721L715.547 566.252L823.822 618.172" stroke="#546BDF" stroke-opacity="0.64" stroke-width="1.38635"/>
<path d="M697.725 793.784L641.273 696.596L715.591 566.849L732.244 548.806" stroke="#546BDF" stroke-opacity="0.64" stroke-width="1.38635"/>
<path d="M641.273 696.596L773.638 669.318L800.756 670.894L929.132 622.314L824.508 619.322L833.725 541.833" stroke="#546BDF" stroke-opacity="0.64" stroke-width="1.38635"/>
<path d="M698.324 793.737L822.744 722.06L773.043 669.361L824.509 619.32" stroke="#546BDF" stroke-opacity="0.64" stroke-width="1.38635"/>
<path d="M824.553 619.917L800.16 670.938L823.067 721.556" stroke="#546BDF" stroke-opacity="0.64" stroke-width="1.38635"/>
<path d="M815.805 706.258L929.132 622.314" stroke="#546BDF" stroke-opacity="0.64" stroke-width="1.38635"/>
<path d="M907.502 538.48L929.132 622.312" stroke="#546BDF" stroke-opacity="0.64" stroke-width="1.38635"/>
<path d="M598.837 891.763L671.232 840.761" stroke="#546BDF" stroke-opacity="0.64" stroke-width="1.38635"/>
<path d="M117.094 804.112L167.451 760.456L157.749 826.278L120.122 844.686L117.094 804.112Z" fill="url(#paint5_linear)" stroke="#546BDF" stroke-opacity="0.64" stroke-width="1.38635"/>
<path d="M167.339 952.534L108.206 921.795L159.993 912.157L195.488 908.531L167.339 952.534Z" fill="url(#paint6_linear)" stroke="#546BDF" stroke-opacity="0.64" stroke-width="1.38635"/>
<path d="M929.655 621.55L1016.13 595.183L906.998 538.159L824.709 619.054" stroke="#546BDF" stroke-opacity="0.64" stroke-width="1.38635"/>
<path d="M1042.1 344.726L1134.62 339.987L977.833 477.389L1079.7 569.082L908.328 538.299L833.198 541.38L921.713 447.421L931.087 363.922L996.417 383.693L1001.7 350.138L1042.1 344.726Z" fill="#6F85E3"/>
<path d="M908.328 538.299L1042.1 344.726M908.328 538.299L1079.7 569.082L977.833 477.389M908.328 538.299L977.833 477.389M908.328 538.299L833.198 541.38L921.713 447.421M1042.1 344.726L1134.62 339.987L977.833 477.389M1042.1 344.726L996.417 383.693M1042.1 344.726L1001.7 350.138L996.417 383.693M921.713 447.421L931.087 363.922L996.417 383.693M921.713 447.421L996.417 383.693M921.713 447.421L788.798 493.091L825.031 618.549" stroke="#546BDF" stroke-opacity="0.64" stroke-width="1.38635"/>
<path d="M788.475 493.595L729.323 551.645L655.374 520.678L606.017 570.078L441.35 516.595L484.691 575.424L385.63 568.17L393.356 678.234" stroke="#546BDF" stroke-opacity="0.64" stroke-width="1.38635"/>
<path d="M716.551 566.875L824.83 618.859L773.837 667.703L716.551 566.875Z" fill="url(#paint7_linear)"/>
<path d="M822.067 720.538L799.667 671.059L774.842 669.991L822.067 720.538Z" fill="url(#paint8_linear)"/>
<path d="M928.334 621.707L907.157 539.041L826.745 618.438L928.334 621.707Z" fill="url(#paint9_linear)"/>
<path d="M697.943 792.779L772.343 670.039L641.709 696.739L697.943 792.779Z" fill="url(#paint10_linear)"/>
<path d="M394.273 678.347L483.823 575.662L386.238 568.703L394.273 678.347Z" fill="url(#paint11_linear)"/>
<path d="M997.772 551.748L1017.45 595.601" stroke="#546BDF" stroke-opacity="0.64" stroke-width="1.38635"/>
<path d="M1056.64 566.367L1017.85 594.749" stroke="#546BDF" stroke-opacity="0.64" stroke-width="1.38635"/>
<defs>
<linearGradient id="paint0_linear" x1="278.723" y1="807.171" x2="481.594" y2="792.031" gradientUnits="userSpaceOnUse">
<stop stop-color="#C8DCEE"/>
<stop offset="1" stop-color="#546BDF"/>
</linearGradient>
<linearGradient id="paint1_linear" x1="161.483" y1="868.3" x2="282.013" y2="859.306" gradientUnits="userSpaceOnUse">
<stop stop-color="#C8DCEE"/>
<stop offset="1" stop-color="#546BDF"/>
</linearGradient>
<linearGradient id="paint2_linear" x1="470.726" y1="654.421" x2="637.2" y2="641.998" gradientUnits="userSpaceOnUse">
<stop stop-color="#C8DCEE"/>
<stop offset="1" stop-color="#546BDF"/>
</linearGradient>
<linearGradient id="paint3_linear" x1="486.453" y1="599.847" x2="716.175" y2="582.704" gradientUnits="userSpaceOnUse">
<stop stop-color="#C8DCEE"/>
<stop offset="1" stop-color="#546BDF"/>
</linearGradient>
<linearGradient id="paint4_linear" x1="469.688" y1="817.4" x2="592.007" y2="808.272" gradientUnits="userSpaceOnUse">
<stop stop-color="#C8DCEE"/>
<stop offset="1" stop-color="#546BDF"/>
</linearGradient>
<linearGradient id="paint5_linear" x1="117.128" y1="804.56" x2="170.446" y2="800.581" gradientUnits="userSpaceOnUse">
<stop stop-color="#C8DCEE"/>
<stop offset="1" stop-color="#546BDF"/>
</linearGradient>
<linearGradient id="paint6_linear" x1="167.744" y1="952.338" x2="144.409" y2="904.233" gradientUnits="userSpaceOnUse">
<stop stop-color="#C8DCEE"/>
<stop offset="1" stop-color="#546BDF"/>
</linearGradient>
<linearGradient id="paint7_linear" x1="720.087" y1="559.638" x2="800.215" y2="645.026" gradientUnits="userSpaceOnUse">
<stop stop-color="#C8DCEE"/>
<stop offset="1" stop-color="#546BDF"/>
</linearGradient>
<linearGradient id="paint8_linear" x1="829.7" y1="717.964" x2="755.342" y2="627.506" gradientUnits="userSpaceOnUse">
<stop stop-color="#C8DCEE"/>
<stop offset="1" stop-color="#546BDF"/>
</linearGradient>
<linearGradient id="paint9_linear" x1="934.336" y1="615.78" x2="823.22" y2="578.834" gradientUnits="userSpaceOnUse">
<stop stop-color="#C8DCEE"/>
<stop offset="1" stop-color="#546BDF"/>
</linearGradient>
<linearGradient id="paint10_linear" x1="719.63" y1="771.758" x2="668.835" y2="666.252" gradientUnits="userSpaceOnUse">
<stop stop-color="#C8DCEE"/>
<stop offset="1" stop-color="#546BDF"/>
</linearGradient>
<linearGradient id="paint11_linear" x1="400.339" y1="654.122" x2="387.438" y2="537.738" gradientUnits="userSpaceOnUse">
<stop stop-color="#C8DCEE"/>
<stop offset="1" stop-color="#546BDF"/>
</linearGradient>
</defs>
</svg>
