<svg width="351" height="260" viewBox="0 0 351 260" fill="none" xmlns="http://www.w3.org/2000/svg">
<path d="M12.6477 240.474L154.204 199.623M12.6477 240.474L32.8432 250.506M12.6477 240.474L101.125 240.752M154.204 199.623L218.407 231.517M154.204 199.623L101.125 240.752M154.204 199.623L236.024 269.504M154.204 199.623L158.134 226.842M218.407 231.517L295.456 153.208M218.407 231.517L236.024 269.504M295.456 153.208L416.062 163.672M295.456 153.208L434.403 202.379M295.456 153.208L236.024 269.504M295.456 153.208L292.256 268.201M295.456 153.208L331.574 186.309M295.456 153.208L356.079 133.875M416.062 163.672L458.967 147.447M416.062 163.672L356.079 133.875M416.062 163.672L363.24 111.084M416.062 163.672L434.403 202.379M416.062 163.672L446.685 174.913M458.967 147.447L363.24 111.084M458.967 147.447L446.685 174.913M458.967 147.447L502.071 168.859M434.403 202.379L331.574 186.309M434.403 202.379L502.071 168.859M434.403 202.379L446.685 174.913M434.403 202.379L368.526 200.695M236.024 269.504L147.544 263.811M236.024 269.504L158.134 226.842M236.024 269.504L292.256 268.201M236.024 269.504L113.034 315.606M147.544 263.811L90.1938 257.158M147.544 263.811L113.034 315.606M147.544 263.811L101.125 240.752M147.544 263.811L158.134 226.842M32.8432 250.506L113.034 315.606M32.8432 250.506L90.1938 257.158M32.8432 250.506L101.125 240.752M113.034 315.606L90.1938 257.158M90.1938 257.158L101.125 240.752M101.125 240.752L158.134 226.842M292.256 268.201L331.574 186.309M292.256 268.201L337.802 228.745M331.574 186.309L337.802 228.745M331.574 186.309L382.585 234.389M331.574 186.309L368.526 200.695M356.079 133.875L363.24 111.084M502.071 168.859L446.685 174.913M337.802 228.745L382.585 234.389M382.585 234.389L368.526 200.695" stroke="#546BDF" stroke-opacity="0.3" stroke-width="0.36"/>
</svg>
