<svg width="206" height="719" viewBox="0 0 206 719" fill="none" xmlns="http://www.w3.org/2000/svg">
<path d="M214.029 98.4415L163.714 108.046M214.029 98.4415L232.252 47.0913M214.029 98.4415L219.389 52.2168M214.029 98.4415L208.344 84.1743M163.714 108.046L203.214 131.028M163.714 108.046L208.344 84.1743M163.714 108.046L206.889 61.2711M163.714 108.046L150.794 148.561M163.714 108.046L179.172 55.0623M203.214 131.028L171.796 129.411M203.214 131.028L177.526 139.684M171.796 129.411L177.526 139.684M171.796 129.411L150.794 148.561M177.526 139.684L150.794 148.561M232.252 47.0913L214.857 40.8433M232.252 47.0913L233.201 82.6569L243.367 78.6061M232.252 47.0913L243.367 78.6061M232.252 47.0913L219.389 52.2168M214.857 40.8433L219.389 52.2168M214.857 40.8433L179.172 55.0623M219.389 52.2168L208.344 84.1743M219.389 52.2168L179.172 55.0623M219.389 52.2168L206.889 61.2711M208.344 84.1743L206.889 61.2711M243.367 78.6061L249.062 89.2767M179.172 55.0623L206.889 61.2711M150.794 148.561L171.201 194.345" stroke="#546BDF" stroke-opacity="0.3" stroke-width="0.357471"/>
<path d="M158.865 107.931L167.138 129.412" stroke="#546BDF" stroke-opacity="0.3" stroke-width="0.357471"/>
<path d="M172.866 139.685L166.831 194.761L198.936 131.261M198.936 131.261L201.588 221.647M198.936 131.261L242.347 186.426M201.588 221.647L259.63 208.388L242.347 186.426M201.588 221.647L242.347 186.426M242.347 186.426L257.958 156.483" stroke="#546BDF" stroke-opacity="0.3" stroke-width="0.357471"/>
<path d="M257.669 156.359L198.937 131.261L260.829 121.742" stroke="#546BDF" stroke-opacity="0.3" stroke-width="0.357471"/>
<path d="M198.862 130.954L242.203 104.575L209.56 98.5575L198.862 130.954Z" stroke="#546BDF" stroke-opacity="0.3" stroke-width="0.357471"/>
<path d="M247.103 257.425L201.896 221.572M201.896 221.572L176.621 279.044L207.559 287.418L201.896 221.572Z" stroke="#546BDF" stroke-opacity="0.3" stroke-width="0.357471"/>
<path d="M207.864 287.344L247.175 257.731L222.23 295.038L200.027 329.575L207.864 287.344Z" stroke="#546BDF" stroke-opacity="0.3" stroke-width="0.357471"/>
<path d="M126.495 223.49L166.377 194.224L201.515 221.341L126.495 223.49Z" stroke="#546BDF" stroke-opacity="0.3" stroke-width="0.357471"/>
<path d="M126.305 223.374L176.621 279.044L126.02 255.837L134.696 274.953L156.04 325.012L199.722 329.649L160.405 351.165" stroke="#546BDF" stroke-opacity="0.3" stroke-width="0.357471"/>
<path d="M134.697 274.951L176.431 278.927L199.532 329.532L201.368 338.481" stroke="#546BDF" stroke-opacity="0.3" stroke-width="0.357471"/>
<path d="M176.43 278.927L155.85 324.895L149.463 332.76L136.204 382.136L159.907 351.123L181.366 370.703" stroke="#546BDF" stroke-opacity="0.3" stroke-width="0.357471"/>
<path d="M134.58 275.142L102.666 321.265L155.967 324.704L159.908 351.123" stroke="#546BDF" stroke-opacity="0.3" stroke-width="0.357471"/>
<path d="M159.718 351.007L149.581 332.57L102.973 321.191" stroke="#546BDF" stroke-opacity="0.3" stroke-width="0.357471"/>
<path d="M166.308 393.756L136.206 382.137" stroke="#546BDF" stroke-opacity="0.3" stroke-width="0.357471"/>
<path d="M126.568 223.797L126.241 256.756" stroke="#546BDF" stroke-opacity="0.3" stroke-width="0.357471"/>
<path d="M226.783 321.323L283.816 378.853M226.783 321.323L206.117 367.878M226.783 321.323L234.157 376.103M283.816 378.853L320.255 381.086M283.816 378.853L234.157 376.103M283.816 378.853L273.902 387.76M283.816 378.853L318.003 400.695M320.255 381.086L374.917 375.641M320.255 381.086L318.003 400.695M374.917 375.641L434.491 433.596M374.917 375.641L318.003 400.695M434.491 433.596L400.739 520.848M434.491 433.596L318.003 400.695M434.491 433.596L420.59 439.135M434.491 433.596L398.609 476.887M400.739 520.848L356.547 538.457M400.739 520.848L398.609 476.887M400.739 520.848L327.673 530.552M400.739 520.848L383.56 510.92M356.547 538.457L370.298 610.376M356.547 538.457L327.673 530.552M370.298 610.376L315.61 664.995M370.298 610.376L286.032 657.132M370.298 610.376L327.673 530.552M370.298 610.376L305.716 558.711M370.298 610.376L336.754 613.678M370.298 610.376L356.897 648.544M315.61 664.995L307.582 693.115M315.61 664.995L356.897 648.544M315.61 664.995L367.062 661.987M315.61 664.995L286.032 657.132M315.61 664.995L296.807 675.123M307.582 693.115L367.062 661.987M307.582 693.115L296.807 675.123M307.582 693.115L277.913 704.937M286.032 657.132L336.754 613.678M286.032 657.132L277.913 704.937M286.032 657.132L296.807 675.123M286.032 657.132L313.593 625.542M327.673 530.552L366.658 489.618M327.673 530.552L383.56 510.92M327.673 530.552L305.716 558.711M327.673 530.552L350.92 450.121M366.658 489.618L393.624 464.376M366.658 489.618L350.92 450.121M366.658 489.618L398.609 476.887M366.658 489.618L383.56 510.92M420.59 439.135L350.92 450.121M420.59 439.135L318.003 400.695M420.59 439.135L393.624 464.376M420.59 439.135L398.609 476.887M350.92 450.121L318.003 400.695M350.92 450.121L393.624 464.376M350.92 450.121L281.696 415.162M350.92 450.121L305.287 447.217M318.003 400.695L273.902 387.76M318.003 400.695L281.696 415.162M206.117 367.878L234.157 376.103M206.117 367.878L230.91 387.713M206.117 367.878L179.58 387.558M206.117 367.878L181.446 370.52M234.157 376.103L273.902 387.76M234.157 376.103L281.696 415.162M234.157 376.103L255.702 407.548M234.157 376.103L230.91 387.713M273.902 387.76L281.696 415.162M281.696 415.162L305.287 447.217M281.696 415.162L255.702 407.548M393.624 464.376L398.609 476.887M398.609 476.887L383.56 510.92M305.716 558.711L336.754 613.678M305.716 558.711L309.93 598.247M336.754 613.678L309.93 598.247M336.754 613.678L288.616 617.762M336.754 613.678L313.593 625.542M356.897 648.544L367.062 661.987M277.913 704.937L296.807 675.123M305.287 447.217L255.702 407.548M255.702 407.548L191.445 417.336M255.702 407.548L230.91 387.713M255.702 407.548L209.591 421.848L191.445 417.336M191.445 417.336L230.91 387.713M191.445 417.336L179.58 387.558M230.91 387.713L179.58 387.558M309.93 598.247L288.616 617.762M288.616 617.762L313.593 625.542M179.58 387.558L166.216 393.842L181.446 370.52M179.58 387.558L181.446 370.52M181.446 370.52L199.329 330.327M181.446 370.52L136.772 382.091" stroke="#546BDF" stroke-opacity="0.3" stroke-width="0.357471"/>
<path d="M205.836 367.462L201.144 336.982L226.635 321.314L222.429 295.673L264.821 256.59L247.056 257.634" stroke="#546BDF" stroke-opacity="0.3" stroke-width="0.357471"/>
</svg>
