<svg width="206" height="719" viewBox="0 0 206 719" fill="none" xmlns="http://www.w3.org/2000/svg">
<path d="M214.03 98.441L163.715 108.045M214.03 98.441L232.253 47.0908M214.03 98.441L219.389 52.2163M214.03 98.441L208.345 84.1738M163.715 108.045L203.215 131.027M163.715 108.045L208.345 84.1738M163.715 108.045L206.889 61.2706M163.715 108.045L150.794 148.56M163.715 108.045L179.172 55.0618M203.215 131.027L171.797 129.41M203.215 131.027L177.526 139.684M171.797 129.41L177.526 139.684M171.797 129.41L150.794 148.56M177.526 139.684L150.794 148.56M232.253 47.0908L214.857 40.8428M232.253 47.0908L233.201 82.6564L243.367 78.6056M232.253 47.0908L243.367 78.6056M232.253 47.0908L219.389 52.2163M214.857 40.8428L219.389 52.2163M214.857 40.8428L179.172 55.0618M219.389 52.2163L208.345 84.1738M219.389 52.2163L179.172 55.0618M219.389 52.2163L206.889 61.2706M208.345 84.1738L206.889 61.2706M243.367 78.6056L249.062 89.2763M179.172 55.0618L206.889 61.2706M150.794 148.56L171.201 194.344" stroke="#546BDF" stroke-opacity="0.3" stroke-width="0.357471"/>
<path d="M158.866 107.932L167.138 129.413" stroke="#546BDF" stroke-opacity="0.3" stroke-width="0.357471"/>
<path d="M172.866 139.687L166.83 194.763L198.935 131.262M198.935 131.262L201.587 221.648M198.935 131.262L242.347 186.427M201.587 221.648L259.629 208.389L242.347 186.427M201.587 221.648L242.347 186.427M242.347 186.427L257.957 156.484" stroke="#546BDF" stroke-opacity="0.3" stroke-width="0.357471"/>
<path d="M257.667 156.36L198.935 131.262L260.827 121.743" stroke="#546BDF" stroke-opacity="0.3" stroke-width="0.357471"/>
<path d="M198.862 130.954L242.203 104.575L209.56 98.5581L198.862 130.954Z" stroke="#546BDF" stroke-opacity="0.3" stroke-width="0.357471"/>
<path d="M247.102 257.425L201.896 221.572M201.896 221.572L176.62 279.044L207.558 287.419L201.896 221.572Z" stroke="#546BDF" stroke-opacity="0.3" stroke-width="0.357471"/>
<path d="M207.864 287.344L247.176 257.731L222.23 295.038L200.028 329.575L207.864 287.344Z" stroke="#546BDF" stroke-opacity="0.3" stroke-width="0.357471"/>
<path d="M126.494 223.491L166.377 194.225L201.514 221.342L126.494 223.491Z" stroke="#546BDF" stroke-opacity="0.3" stroke-width="0.357471"/>
<path d="M126.304 223.373L176.62 279.044L126.019 255.837L134.695 274.952L156.039 325.011L199.721 329.649L160.404 351.165" stroke="#546BDF" stroke-opacity="0.3" stroke-width="0.357471"/>
<path d="M134.695 274.951L176.43 278.927L199.531 329.532L201.367 338.481" stroke="#546BDF" stroke-opacity="0.3" stroke-width="0.357471"/>
<path d="M176.43 278.928L155.85 324.895L149.464 332.76L136.205 382.137L159.908 351.123L181.367 370.704" stroke="#546BDF" stroke-opacity="0.3" stroke-width="0.357471"/>
<path d="M134.579 275.143L102.665 321.266L155.967 324.706L159.908 351.124" stroke="#546BDF" stroke-opacity="0.3" stroke-width="0.357471"/>
<path d="M159.717 351.006L149.58 332.569L102.972 321.19" stroke="#546BDF" stroke-opacity="0.3" stroke-width="0.357471"/>
<path d="M166.306 393.757L136.204 382.138" stroke="#546BDF" stroke-opacity="0.3" stroke-width="0.357471"/>
<path d="M126.568 223.797L126.241 256.757" stroke="#546BDF" stroke-opacity="0.3" stroke-width="0.357471"/>
<path d="M226.783 321.324L283.816 378.853M226.783 321.324L206.117 367.879M226.783 321.324L234.157 376.103M283.816 378.853L320.255 381.086M283.816 378.853L234.157 376.103M283.816 378.853L273.902 387.761M283.816 378.853L318.003 400.696M320.255 381.086L374.917 375.642M320.255 381.086L318.003 400.696M374.917 375.642L434.49 433.596M374.917 375.642L318.003 400.696M434.49 433.596L400.739 520.849M434.49 433.596L318.003 400.696M434.49 433.596L420.589 439.135M434.49 433.596L398.609 476.888M400.739 520.849L356.547 538.457M400.739 520.849L398.609 476.888M400.739 520.849L327.673 530.553M400.739 520.849L383.56 510.92M356.547 538.457L370.298 610.376M356.547 538.457L327.673 530.553M370.298 610.376L315.61 664.996M370.298 610.376L286.031 657.132M370.298 610.376L327.673 530.553M370.298 610.376L305.716 558.711M370.298 610.376L336.753 613.678M370.298 610.376L356.897 648.545M315.61 664.996L307.581 693.116M315.61 664.996L356.897 648.545M315.61 664.996L367.061 661.987M315.61 664.996L286.031 657.132M315.61 664.996L296.806 675.124M307.581 693.116L367.061 661.987M307.581 693.116L296.806 675.124M307.581 693.116L277.913 704.937M286.031 657.132L336.753 613.678M286.031 657.132L277.913 704.937M286.031 657.132L296.806 675.124M286.031 657.132L313.593 625.543M327.673 530.553L366.658 489.619M327.673 530.553L383.56 510.92M327.673 530.553L305.716 558.711M327.673 530.553L350.92 450.122M366.658 489.619L393.623 464.377M366.658 489.619L350.92 450.122M366.658 489.619L398.609 476.888M366.658 489.619L383.56 510.92M420.589 439.135L350.92 450.122M420.589 439.135L318.003 400.696M420.589 439.135L393.623 464.377M420.589 439.135L398.609 476.888M350.92 450.122L318.003 400.696M350.92 450.122L393.623 464.377M350.92 450.122L281.695 415.163M350.92 450.122L305.286 447.218M318.003 400.696L273.902 387.761M318.003 400.696L281.695 415.163M206.117 367.879L234.157 376.103M206.117 367.879L230.909 387.714M206.117 367.879L179.579 387.559M206.117 367.879L181.445 370.521M234.157 376.103L273.902 387.761M234.157 376.103L281.695 415.163M234.157 376.103L255.702 407.548M234.157 376.103L230.909 387.714M273.902 387.761L281.695 415.163M281.695 415.163L305.286 447.218M281.695 415.163L255.702 407.548M393.623 464.377L398.609 476.888M398.609 476.888L383.56 510.92M305.716 558.711L336.753 613.678M305.716 558.711L309.929 598.247M336.753 613.678L309.929 598.247M336.753 613.678L288.615 617.763M336.753 613.678L313.593 625.543M356.897 648.545L367.061 661.987M277.913 704.937L296.806 675.124M305.286 447.218L255.702 407.548M255.702 407.548L191.445 417.337M255.702 407.548L230.909 387.714M255.702 407.548L209.59 421.848L191.445 417.337M191.445 417.337L230.909 387.714M191.445 417.337L179.579 387.559M230.909 387.714L179.579 387.559M309.929 598.247L288.615 617.763M288.615 617.763L313.593 625.543M179.579 387.559L166.216 393.842L181.445 370.521M179.579 387.559L181.445 370.521M181.445 370.521L199.328 330.327M181.445 370.521L136.771 382.091" stroke="#546BDF" stroke-opacity="0.3" stroke-width="0.357471"/>
<path d="M205.836 367.463L201.144 336.983L226.636 321.315L222.429 295.674L264.822 256.591L247.056 257.635" stroke="#546BDF" stroke-opacity="0.3" stroke-width="0.357471"/>
</svg>
