<svg width="581" height="523" viewBox="0 0 581 523" fill="none" xmlns="http://www.w3.org/2000/svg">
<path d="M202.166 255.486L245.72 138.147M202.166 255.486L71.0427 278.563M202.166 255.486L88.6115 249.647M202.166 255.486L170.095 236M245.72 138.147L285.071 242.647M245.72 138.147L170.095 236M245.72 138.147L115.499 223.202M245.72 138.147L348.583 123.451M245.72 138.147L111.783 153.897M285.071 242.647L293.921 166.288M285.071 242.647L316.351 184.261M293.921 166.288L316.351 184.261M293.921 166.288L348.583 123.451M316.351 184.261L348.583 123.451M71.0427 278.563L63.045 234.114M71.0427 278.563L156.355 295.277L142.47 318.129M71.0427 278.563L142.47 318.129M71.0427 278.563L88.6115 249.647M63.045 234.114L88.6115 249.647M63.045 234.114L111.783 153.897M88.6115 249.647L170.095 236M88.6115 249.647L111.783 153.897M88.6115 249.647L115.499 223.202M170.095 236L115.499 223.202M142.47 318.129L165.871 336.179M111.783 153.897L115.499 223.202M348.583 123.451L450.623 191.195" stroke="#546BDF"/>
<path d="M245.516 137.64L293.919 166.287" stroke="#546BDF"/>
<path d="M316.349 184.259L451.505 192.061L285.473 243.658M285.473 243.658L502.185 286.716M285.473 243.658L400.783 370.639M502.185 286.716L446.69 421.192L400.783 370.639M502.185 286.716L400.783 370.639M400.783 370.639L322.302 396.105" stroke="#546BDF"/>
<path d="M237.428 388.926L246.888 424.685L323.091 395.636L237.428 388.926Z" stroke="#546BDF"/>
<path d="M322.121 395.356L285.473 243.657L237.429 388.927" stroke="#546BDF"/>
<path d="M284.764 243.354L203.62 337.084L202.364 255.989L284.764 243.354Z" stroke="#546BDF"/>
<path d="M321.088 396.008L447.598 422.001" stroke="#546BDF"/>
<path d="M450.395 190.748L501.479 286.414" stroke="#546BDF"/>
<path d="M178.929 372.273L237.53 387.712L203.317 337.795L165.205 337.879L178.929 372.273Z" stroke="#546BDF"/>
<path d="M446.588 422.408L338.575 432.173M338.575 432.173L321.837 395.823M338.575 432.173L297.203 407.036M338.575 432.173L248.061 425.068" stroke="#546BDF"/>
<path d="M202.511 255.966L165.053 338.567L156.953 295.333L202.511 255.966Z" stroke="#546BDF"/>
</svg>
