<svg width="258" height="462" viewBox="0 0 258 462" fill="none" xmlns="http://www.w3.org/2000/svg">
<path d="M-94.2883 225.432L-65.5334 347.246M-94.2883 225.432L-221.566 186.365M-94.2883 225.432L-207.696 217.226M-94.2883 225.432L-128.517 240.816M-65.5334 347.246L-13.5983 248.395M-65.5334 347.246L-128.517 240.816M-65.5334 347.246L-184.274 246.785M-65.5334 347.246L34.733 374.512M-65.5334 347.246L-196.506 315.103M-13.5983 248.395L-14.2304 325.262M-13.5983 248.395L10.2441 310.192M-14.2304 325.262L10.2441 310.192M-14.2304 325.262L34.733 374.512M10.2441 310.192L34.733 374.512M-221.566 186.365L-234.983 229.489M-221.566 186.365L-134.844 180.297L-145.805 155.907M-221.566 186.365L-145.805 155.907M-221.566 186.365L-207.696 217.226M-234.983 229.489L-207.696 217.226M-234.983 229.489L-196.506 315.103M-207.696 217.226L-128.517 240.816M-207.696 217.226L-196.506 315.103M-207.696 217.226L-184.274 246.785M-128.517 240.816L-184.274 246.785M-145.805 155.907L-120.357 140.88M-196.506 315.103L-184.274 246.785M34.733 374.512L144.347 319.865" stroke="#546BDF"/>
<path d="M10.2426 310.193L145.329 319.115L-13.0745 247.441M-13.0745 247.441L207.293 231.431M-13.0745 247.441L117.012 135.646M207.293 231.431L168.801 91.1386L117.012 135.646M207.293 231.431L117.012 135.646M117.012 135.646L42.2696 100.698" stroke="#546BDF"/>
<path d="M-42.842 97.358L-29.0457 63.0382L42.9939 101.26L-42.842 97.358Z" stroke="#546BDF"/>
<path d="M41.9968 101.419L-13.0747 247.442L-42.8415 97.3573" stroke="#546BDF"/>
<path d="M-13.8152 247.656L-82.7837 144.636L-94.0286 224.958L-13.8152 247.656Z" stroke="#546BDF"/>
<path d="M41.0527 100.645L169.803 90.4474" stroke="#546BDF"/>
<path d="M144.064 320.281L206.554 231.643" stroke="#546BDF"/>
<path d="M168.849 89.9192L62.8634 66.9119M62.8634 66.9119L41.7718 100.921M62.8634 66.9119L18.7088 86.7559M62.8634 66.9119L-27.8359 62.8022" stroke="#546BDF"/>
</svg>
