<svg width="876" height="1974" viewBox="0 0 876 1974" fill="none" xmlns="http://www.w3.org/2000/svg">
<path d="M947.272 771.778L1077.17 817.42L951.623 817.159L836.781 818.99L947.272 771.778Z" stroke="#546BDF" stroke-opacity="0.3"/>
<path d="M969.818 482.688L918.171 686.152L893.778 532.345L862.712 582.179L779.225 709.48L836.135 818.389L725.087 760.184" stroke="#546BDF" stroke-opacity="0.3"/>
<path d="M862.711 582.178L918.145 685.528L836.109 817.765L818.114 835.913" stroke="#546BDF" stroke-opacity="0.3"/>
<path d="M918.145 685.529L779.198 708.857M724.411 758.962L712.077 839.285" stroke="#546BDF" stroke-opacity="0.3"/>
<path d="M779.822 708.834L724.411 758.962" stroke="#546BDF" stroke-opacity="0.3"/>
<path d="M897.466 868.504L851.902 1090.49M897.466 868.504L757.02 892.544M897.466 868.504L781.331 970.588M851.902 1090.49L903.186 1178.81M851.902 1090.49L781.331 970.588M851.902 1090.49L815.793 1081.21M851.902 1090.49L854.031 1203.96M903.186 1178.81L1000.59 1297.66M903.186 1178.81L854.031 1203.96M1000.59 1297.66L957.979 1526.22M1000.59 1297.66L854.031 1203.96M957.979 1526.22L854.031 1203.96M957.979 1526.22L923.533 1502.44M957.979 1526.22L801.546 1509.77M702.476 1582.88L592.97 1507.26M702.476 1582.88L801.546 1509.77M702.476 1582.88L566.621 1427.77M702.476 1582.88L698.968 1527.48M592.97 1507.26L446.806 1650.76M592.97 1507.26L566.621 1427.77M446.806 1650.76L234.843 1608.07M446.806 1650.76L207.305 1527.01M446.806 1650.76L566.621 1427.77M446.806 1650.76L467.012 1420.28M446.806 1650.76L387.121 1577.77M446.806 1650.76L337.151 1678.72M234.843 1608.07L156.915 1632.97M234.843 1608.07L337.151 1678.72M234.843 1608.07L321.603 1723.23M234.843 1608.07L207.305 1527.01M234.843 1608.07L182.11 1579.99M156.915 1632.97L321.603 1723.23M156.915 1632.97L182.11 1579.99M156.915 1632.97L83.397 1582.2M207.305 1527.01L387.121 1577.77M207.305 1527.01L83.397 1582.2M207.305 1527.01L182.11 1579.99M207.305 1527.01L323.592 1542.22M566.621 1427.77L722.373 1455.1M566.621 1427.77L698.968 1527.48M566.621 1427.77L467.012 1420.28M566.621 1427.77L789.956 1357.23M722.373 1455.1L822.953 1478.77M722.373 1455.1L789.956 1357.23M722.373 1455.1L801.546 1509.77M722.373 1455.1L698.968 1527.48M923.533 1502.44L789.956 1357.23M923.533 1502.44L854.031 1203.96M923.533 1502.44L822.953 1478.77M923.533 1502.44L801.546 1509.77M789.956 1357.23L854.031 1203.96M789.956 1357.23L822.953 1478.77M789.956 1357.23L764.061 1141.84M789.956 1357.23L725.982 1246.46M854.031 1203.96L815.793 1081.21M854.031 1203.96L764.061 1141.84M757.02 892.544L781.331 970.588M757.02 892.544L749.26 981.023M757.02 892.544L712.625 839.186L833.944 818.527M781.331 970.588L815.793 1081.21M781.331 970.588L764.061 1141.84M781.331 970.588L741.501 1069.5M781.331 970.588L749.26 981.023M815.793 1081.21L764.061 1141.84M764.061 1141.84L725.982 1246.46M764.061 1141.84L741.501 1069.5M822.953 1478.77L801.546 1509.77M801.546 1509.77L698.968 1527.48M467.012 1420.28L387.121 1577.77M467.012 1420.28L381.475 1491.38M387.121 1577.77L381.475 1491.38M387.121 1577.77L302.991 1472M387.121 1577.77L323.592 1542.22M337.151 1678.72L321.603 1723.23M83.397 1582.2L182.11 1579.99M725.982 1246.46L741.501 1069.5M741.501 1069.5L749.26 981.023M381.475 1491.38L302.991 1472M302.991 1472L323.592 1542.22" stroke="#546BDF" stroke-opacity="0.3"/>
<path d="M757.552 891.243L821.258 833.071L897.259 868.145L950.449 818.604L1107.17 856.743L1077.2 816.991" stroke="#546BDF" stroke-opacity="0.3"/>
</svg>
