<svg width="817" height="1989" viewBox="0 0 817 1989" fill="none" xmlns="http://www.w3.org/2000/svg">
<path d="M-160.531 494.268L-110.732 698.193L-84.9443 544.613L-54.3319 594.727L27.9966 722.78L-29.8991 831.169L81.673 773.973" stroke="#546BDF" stroke-opacity="0.3"/>
<path d="M-54.3326 594.726L-110.702 697.569L-29.8686 830.545L-12.0387 848.855" stroke="#546BDF" stroke-opacity="0.3"/>
<path d="M-110.699 697.57L28.0296 722.158M82.3604 772.757L93.9644 853.189" stroke="#546BDF" stroke-opacity="0.3"/>
<path d="M27.4062 722.129L82.3604 772.758" stroke="#546BDF" stroke-opacity="0.3"/>
<path d="M-91.6826 880.725L-48.1347 1103.12M-91.6826 880.725L48.5399 906.038M-91.6826 880.725L23.5212 983.858M-48.1347 1103.12L-100.218 1190.97M-48.1347 1103.12L23.5212 983.858M-48.1347 1103.12L-11.9423 1094.17M-48.1347 1103.12L-51.2922 1216.56M-100.218 1190.97L-198.7 1308.93M-100.218 1190.97L-51.2922 1216.56M-198.7 1308.93L-158.16 1537.87M-198.7 1308.93L-51.2922 1216.56M-158.16 1537.87L-51.2922 1216.56M-158.16 1537.87L-123.5 1514.4M-158.16 1537.87L-1.58414 1522.84M96.819 1596.84L207.006 1522.22M96.819 1596.84L-1.58414 1522.84M96.819 1596.84L234.076 1442.97M96.819 1596.84L100.829 1541.48M207.006 1522.22L351.862 1667.04M207.006 1522.22L234.076 1442.97M351.862 1667.04L564.204 1626.28M351.862 1667.04L592.476 1545.46M351.862 1667.04L234.076 1442.97M351.862 1667.04L333.748 1436.39M351.862 1667.04L412.207 1594.59M351.862 1667.04L461.259 1695.99M564.204 1626.28L641.903 1651.87M564.204 1626.28L461.259 1695.99M564.204 1626.28L476.402 1740.64M564.204 1626.28L592.476 1545.46M564.204 1626.28L617.189 1598.67M641.903 1651.87L476.402 1740.64M641.903 1651.87L617.189 1598.67M641.903 1651.87L715.878 1601.78M592.476 1545.46L412.207 1594.59M592.476 1545.46L715.878 1601.78M592.476 1545.46L617.189 1598.67M592.476 1545.46L476.056 1559.62M234.076 1442.97L78.0818 1468.89M234.076 1442.97L100.829 1541.48M234.076 1442.97L333.748 1436.39M234.076 1442.97L11.3898 1370.41M78.0818 1468.89L-22.7091 1491.64M78.0818 1468.89L11.3898 1370.41M78.0818 1468.89L-1.58414 1522.84M78.0818 1468.89L100.829 1541.48M-123.5 1514.4L11.3898 1370.41M-123.5 1514.4L-51.2922 1216.56M-123.5 1514.4L-22.7091 1491.64M-123.5 1514.4L-1.58414 1522.84M11.3898 1370.41L-51.2922 1216.56M11.3898 1370.41L-22.7091 1491.64M11.3898 1370.41L39.2373 1155.26M11.3898 1370.41L76.3651 1260.22M-51.2922 1216.56L-11.9423 1094.17M-51.2922 1216.56L39.2373 1155.26M48.5399 906.038L23.5212 983.858M48.5399 906.038L55.4962 994.584M48.5399 906.038L135.784 875.535M48.5399 906.038L93.417 853.085M23.5212 983.858L-11.9423 1094.17M23.5212 983.858L39.2373 1155.26M23.5212 983.858L62.4525 1083.13M23.5212 983.858L55.4962 994.584M-11.9423 1094.17L39.2373 1155.26M39.2373 1155.26L76.3651 1260.22M39.2373 1155.26L62.4525 1083.13M-22.7091 1491.64L-1.58414 1522.84M-1.58414 1522.84L100.829 1541.48M333.748 1436.39L412.207 1594.59M333.748 1436.39L418.636 1508.26M412.207 1594.59L418.636 1508.26M412.207 1594.59L497.293 1489.59M412.207 1594.59L476.056 1559.62M461.259 1695.99L476.402 1740.64M715.878 1601.78L617.189 1598.67M76.3651 1260.22L62.4525 1083.13M62.4525 1083.13L186.065 949.783M62.4525 1083.13L55.4962 994.584M62.4525 1083.13L167.997 998.87L186.065 949.783M186.065 949.783L55.4962 994.584M186.065 949.783L135.784 875.535M186.065 949.783L214.971 843.427M55.4962 994.584L135.784 875.535M418.636 1508.26L497.293 1489.59M497.293 1489.59L476.056 1559.62M135.784 875.535L93.417 853.085M135.784 875.535L214.971 843.427M93.417 853.085L-27.7097 831.326M93.417 853.085L214.971 843.427M93.417 853.085L120.808 743.467M214.971 843.427L120.808 743.467M214.971 843.427L308.087 786.351L120.808 743.467" stroke="#546BDF" stroke-opacity="0.3"/>
<path d="M48.0204 904.732L-15.1545 845.985L-91.4706 880.368L-144.209 830.347L-301.273 867.062L-270.945 827.584" stroke="#546BDF" stroke-opacity="0.3"/>
</svg>
