<svg width="505" height="1164" viewBox="0 0 505 1164" fill="none" xmlns="http://www.w3.org/2000/svg">
<path d="M583.302 292.338L445.971 333.241M583.302 292.338L619.558 144.286M583.302 292.338L585.199 162.175M583.302 292.338L563.462 254.231M445.971 333.241L562.381 386.079M445.971 333.241L563.462 254.231M445.971 333.241L552.96 190.896M445.971 333.241L421.422 449.642M445.971 333.241L474.067 181.423M562.381 386.079L474.483 390.429M562.381 386.079L493.322 417.408M474.483 390.429L493.322 417.408M474.483 390.429L421.422 449.642M493.322 417.408L421.422 449.642M619.558 144.286L569.383 131.797M619.558 144.286L632.215 243.006L659.369 228.868M619.558 144.286L659.369 228.868M619.558 144.286L585.199 162.175M569.383 131.797L585.199 162.175M569.383 131.797L474.067 181.423M585.199 162.175L563.462 254.231M585.199 162.175L474.067 181.423M585.199 162.175L552.96 190.896M563.462 254.231L552.96 190.896M659.369 228.868L678.224 256.963M474.067 181.423L552.96 190.896M421.422 449.642L491.114 571.321" stroke="#546BDF" stroke-opacity="0.3"/>
<path d="M445.408 332.971L474.483 390.427" stroke="#546BDF" stroke-opacity="0.3"/>
<path d="M493.321 417.407L492.037 572.395L563.505 386.616M563.505 386.616L596.345 637.433M563.505 386.616L699.868 527.924M596.345 637.433L754.155 584.181L699.868 527.924M596.345 637.433L699.868 527.924M699.868 527.924L734.88 440.19" stroke="#546BDF" stroke-opacity="0.3"/>
<path d="M387.861 663.715L490.62 571.028L596.053 636.603L387.861 663.715Z" stroke="#546BDF" stroke-opacity="0.3"/>
<path d="M387.299 663.442L543.019 804.213L395.649 753.876L425.181 804.635L498.688 937.947L621.569 938.551L518.202 1009.51" stroke="#546BDF" stroke-opacity="0.3"/>
<path d="M425.182 804.634L542.458 803.943L621.007 938.281L628.637 962.672" stroke="#546BDF" stroke-opacity="0.3"/>
<path d="M542.457 803.946L498.126 937.681M516.807 1009.54L582.048 1057.99" stroke="#546BDF" stroke-opacity="0.3"/>
<path d="M498.398 937.119L516.809 1009.54" stroke="#546BDF" stroke-opacity="0.3"/>
<path d="M388.154 664.546L396.526 756.373" stroke="#546BDF" stroke-opacity="0.3"/>
</svg>
