<svg width="654" height="1469" viewBox="0 0 654 1469" fill="none" xmlns="http://www.w3.org/2000/svg">
<path d="M384.119 -119.827L252.043 -170.506M384.119 -119.827L501.522 -218.514M384.119 -119.827L463.875 -224.943M384.119 -119.827L391.506 -163.088M252.043 -170.506L311.376 -56.0953M252.043 -170.506L391.506 -163.088M252.043 -170.506L421.373 -221.23M252.043 -170.506L162.835 -90.4946M252.043 -170.506L365.326 -277.264M311.376 -56.0953L239.969 -106.357M311.376 -56.0953L238.489 -72.7952M239.969 -106.357L238.489 -72.7952M239.969 -106.357L162.835 -90.4946M238.489 -72.7952L162.835 -90.4946M501.522 -218.514L469.764 -259.43M501.522 -218.514L452.064 -130.161L481.817 -125.08M501.522 -218.514L481.817 -125.08M501.522 -218.514L463.875 -224.943M469.764 -259.43L463.875 -224.943M469.764 -259.43L365.326 -277.264M463.875 -224.943L391.506 -163.088M463.875 -224.943L365.326 -277.264M463.875 -224.943L421.373 -221.23M391.506 -163.088L421.373 -221.23M481.817 -125.08L479.679 -90.5978M365.326 -277.264L421.373 -221.23M162.835 -90.4946L144.209 51.5229" stroke="#546BDF" stroke-opacity="0.3"/>
<path d="M238.489 -72.7973L144.285 52.9641L311.933 -54.9698M311.933 -54.9698L186.81 169.927M311.933 -54.9698L333.68 143.891M186.81 169.927L342.338 223.06L333.68 143.891M186.81 169.927L333.68 143.891M333.68 143.891L413.84 93.6921" stroke="#546BDF" stroke-opacity="0.3"/>
<path d="M471.061 12.9832L494.353 48.5819L412.853 94.0348L471.061 12.9832Z" stroke="#546BDF" stroke-opacity="0.3"/>
<path d="M413.338 92.9607L311.931 -54.9704L471.061 12.9835" stroke="#546BDF" stroke-opacity="0.3"/>
<path d="M312.205 -55.8294L452.286 -56.4415L384.398 -119.267L312.205 -55.8294Z" stroke="#546BDF" stroke-opacity="0.3"/>
<path d="M342.617 223.624L242.494 324.756" stroke="#546BDF" stroke-opacity="0.3"/>
<path d="M414.662 92.543L342.346 224.483" stroke="#546BDF" stroke-opacity="0.3"/>
<path d="M241.665 324.486L187.639 170.197M187.639 170.197L44.784 273.458L105.244 339.533L187.639 170.197Z" stroke="#546BDF" stroke-opacity="0.3"/>
<path d="M128.617 379.79L26.3052 431.505L106.072 339.804L241.393 325.344L128.617 379.79ZM128.617 379.79L126.342 464.036M128.617 379.79L283.266 349.821L204.804 406.928M128.617 379.79L204.804 406.928M40.5419 596.44L124.067 548.282M124.067 548.282L126.342 464.036M124.067 548.282L204.804 406.928M124.067 548.282L190.157 591.587M126.342 464.036L99.1143 451.508M126.342 464.036L204.804 406.928M204.804 406.928L190.157 591.587M190.157 591.587L151.729 674.995" stroke="#546BDF" stroke-opacity="0.3"/>
<path d="M105.801 340.659L128.617 379.788" stroke="#546BDF" stroke-opacity="0.3"/>
<path d="M7.84142 63.7494L143.998 50.9808L187.081 169.071L7.84142 63.7494Z" stroke="#546BDF" stroke-opacity="0.3"/>
<path d="M7.56445 63.1826L44.7854 273.456L-40.2811 142.134L-47.6918 201.658L-70.3285 355.51L25.4782 431.232L-98.0885 425.886" stroke="#546BDF" stroke-opacity="0.3"/>
<path d="M-47.6904 201.656L44.5081 272.891L25.2009 430.666L16.505 455.253" stroke="#546BDF" stroke-opacity="0.3"/>
<path d="M44.5059 272.893L-70.608 354.947L-97.0295 364.763L-199.91 465.941L-99.1968 425.053L-77.2731 504.555" stroke="#546BDF" stroke-opacity="0.3"/>
<path d="M-48.2428 201.952L-190.19 267.681L-70.0582 354.653L-99.1969 425.053" stroke="#546BDF" stroke-opacity="0.3"/>
<path d="M7.57031 64.6069L-41.0965 144.709" stroke="#546BDF" stroke-opacity="0.3"/>
<path d="M500.571 -51.5535L469.958 12.1486L453.116 -56.1686L481.619 -89.8936L500.571 -51.5535Z" stroke="#546BDF" stroke-opacity="0.3"/>
<path d="M284.712 347.448L314.079 285.672M284.712 347.448L362.352 293.929M284.712 347.448L338.215 289.8M432.311 135.565L343.446 223.896L314.079 285.672M432.311 135.565L413.947 93.0648M432.311 135.565L441.84 79.7587M432.311 135.565L493.805 49.9126M314.079 285.672L338.215 289.8M314.079 285.672L242.073 325.433M362.352 293.929L338.215 289.8M362.352 293.929L438.877 272.65L338.215 289.8" stroke="#546BDF" stroke-opacity="0.3"/>
<path d="M101.104 450.766L151.393 675.486M101.104 450.766L-15.064 534.13M101.104 450.766L38.8101 595.566M151.393 675.486L38.8101 595.566M151.393 675.486L115.175 682.651M151.393 675.486L199.909 779.279M205.359 948.639L199.909 779.279M205.359 948.639L93.6499 761.134M205.359 948.639L102.45 874.278M205.359 948.639L43.4547 956.762M205.359 948.639L18.6575 1030.55M205.359 948.639L-44.0714 1149.28M205.359 948.639L136.889 1153.45M199.909 779.279L115.175 682.651M199.909 779.279L93.6499 761.134M-15.064 534.13L38.8101 595.566M-15.064 534.13L14.3145 619.167M-15.064 534.13L-105.962 543.131M-15.064 534.13L-76.822 504.224M38.8101 595.566L115.175 682.651M38.8101 595.566L93.6499 761.134M38.8101 595.566L43.693 704.204M38.8101 595.566L14.3145 619.167M115.175 682.651L93.6499 761.134M93.6499 761.134L102.45 874.278M93.6499 761.134L43.693 704.204M102.45 874.278L43.693 704.204M102.45 874.278L8.5561 772.739M102.45 874.278L-68.4361 867.011M102.45 874.278L-29.94 819.875M102.45 874.278L43.4547 956.762M43.693 704.204L-121.381 633.425M43.693 704.204L14.3145 619.167M43.693 704.204L-85.3378 671.2M43.693 704.204L8.5561 772.739M-121.381 633.425L14.3145 619.167M-121.381 633.425L-85.3378 671.2M-121.381 633.425L-105.962 543.131M-121.381 633.425L-146.465 538.796M14.3145 619.167L-105.962 543.131M-85.3378 671.2L8.5561 772.739M-85.3378 671.2L-29.94 819.875M-105.962 543.131L-146.465 538.796M-105.962 543.131L-76.822 504.224M-146.465 538.796L-76.822 504.224M-76.822 504.224L23.569 432.312M-76.822 504.224L-198.514 466.666L-191.204 267.608L-181.616 173.816M8.5561 772.739L-29.94 819.875M-68.4361 867.011L-29.94 819.875M-68.4361 867.011L43.4547 956.762M-68.4361 867.011L-24.8893 948.781M43.4547 956.762L18.6575 1030.55M18.6575 1030.55L-44.0714 1149.28M18.6575 1030.55L-24.8893 948.781M-44.0714 1149.28L-24.8893 948.781M-44.0714 1149.28L136.889 1153.45M-44.0714 1149.28L65.8454 1216.16M-44.0714 1149.28L8.62618 1266.67M136.889 1153.45L65.8454 1216.16M65.8454 1216.16L8.62618 1266.67M65.8454 1216.16L13.5823 1324.09M8.62618 1266.67L-30.925 1301.58L13.5823 1324.09M8.62618 1266.67L13.5823 1324.09M13.5823 1324.09L-22.0292 1404.64" stroke="#546BDF" stroke-opacity="0.3"/>
<path d="M-15.1193 532.697L18.1588 451.261L100.772 450.525L128.158 381.635L284.473 348.565L241.251 324.932" stroke="#546BDF" stroke-opacity="0.3"/>
</svg>
